<?xml version="1.0" encoding="utf-8"?>
<!-- Generator: Adobe Illustrator 23.0.1, SVG Export Plug-In . SVG Version: 6.00 Build 0)  -->
<svg version="1.1" id="Layer_1" xmlns="http://www.w3.org/2000/svg" xmlns:xlink="http://www.w3.org/1999/xlink" x="0px" y="0px"
	 viewBox="0 0 283.7 283.5" style="enable-background:new 0 0 283.7 283.5;" xml:space="preserve">
<style type="text/css">
	.st0{clip-path:url(#SVGID_2_);fill:#EEAF08;}
	.st1{clip-path:url(#SVGID_4_);fill:url(#SVGID_5_);}
	.st2{clip-path:url(#SVGID_7_);fill:#50BFA5;}
	.st3{clip-path:url(#SVGID_9_);}
	.st4{fill:url(#SVGID_10_);}
	.st5{fill:url(#SVGID_11_);}
	.st6{clip-path:url(#SVGID_13_);fill:url(#SVGID_14_);}
	.st7{clip-path:url(#SVGID_16_);fill:url(#SVGID_17_);}
	.st8{clip-path:url(#SVGID_19_);fill:url(#SVGID_20_);}
	.st9{clip-path:url(#SVGID_22_);fill:url(#SVGID_23_);}
	.st10{clip-path:url(#SVGID_25_);}
	.st11{fill:url(#SVGID_26_);}
	.st12{fill:url(#SVGID_27_);}
	.st13{fill:url(#SVGID_28_);}
	.st14{fill:url(#SVGID_29_);}
	.st15{fill:url(#SVGID_30_);}
	.st16{fill:url(#SVGID_31_);}
	.st17{fill:url(#SVGID_32_);}
	.st18{fill:#07345A;}
	.st19{fill:#D6385B;}
	.st20{fill:#EBCE00;}
	.st21{fill:url(#SVGID_33_);}
	.st22{fill:#F66491;}
	.st23{fill:#92B5F9;}
	.st24{fill:url(#SVGID_34_);}
	.st25{opacity:0.4;fill:#606060;enable-background:new    ;}
	.st26{fill:url(#SVGID_35_);}
	.st27{fill:url(#SVGID_36_);}
	.st28{fill:url(#SVGID_37_);}
	.st29{fill:url(#SVGID_38_);}
	.st30{fill:url(#SVGID_39_);}
	.st31{fill:url(#SVGID_40_);}
	.st32{fill:url(#SVGID_41_);}
	.st33{fill:url(#SVGID_42_);}
	.st34{fill:url(#SVGID_43_);}
	.st35{fill:url(#SVGID_44_);}
	.st36{fill:url(#SVGID_45_);}
</style>
<g id="Layer_3">
</g>
<g id="Layer_4">
</g>
<g id="Layer_5">
</g>
<g id="Layer_6">
	<g>
		<g>
			<defs>
				<rect id="SVGID_1_" y="0" width="283.5" height="283.5"/>
			</defs>
			<clipPath id="SVGID_2_">
				<use xlink:href="#SVGID_1_"  style="overflow:visible;"/>
			</clipPath>
			<rect y="0" class="st0" width="283.7" height="283.7"/>
		</g>
		<g>
			<defs>
				<rect id="SVGID_3_" y="0" width="283.5" height="283.5"/>
			</defs>
			<clipPath id="SVGID_4_">
				<use xlink:href="#SVGID_3_"  style="overflow:visible;"/>
			</clipPath>
			
				<linearGradient id="SVGID_5_" gradientUnits="userSpaceOnUse" x1="225.1796" y1="21.0061" x2="313.0093" y2="21.0061" gradientTransform="matrix(1 0 0 -1 0 283.2756)">
				<stop  offset="0.3488" style="stop-color:#2FB18F"/>
				<stop  offset="0.5044" style="stop-color:#2CAE8B"/>
				<stop  offset="0.6664" style="stop-color:#23A57E"/>
				<stop  offset="0.8313" style="stop-color:#159569"/>
				<stop  offset="0.9973" style="stop-color:#007F4D"/>
				<stop  offset="1" style="stop-color:#007F4C"/>
			</linearGradient>
			<path class="st1" d="M302.2,118.5l10.3-9.9c-3.2-18-20.1-26.6-31.2-27.8c-29.9-3.2-45.1,17.4-51.6,50.4
				c-11.7,60.2,3,312.9,3,312.9c1.1-6.7,82.3-260.5,80.2-330.2L302.2,118.5z"/>
		</g>
		<g>
			<defs>
				<rect id="SVGID_6_" y="0" width="283.5" height="283.5"/>
			</defs>
			<clipPath id="SVGID_7_">
				<use xlink:href="#SVGID_6_"  style="overflow:visible;"/>
			</clipPath>
			<path class="st2" d="M569.3,442.8c-4.2-19.3-46.3-25-100.1-14.4c19.1-6.5,45.5-21.4,59.1-28.2l-9.3-5.9l18.7,0.9
				c15.3-9,23-17.8,18-25.7c-3.7-6-11.9-8.4-23-8.4l-5.8,10.5l1.2-10.3c-28,1.6-34.4-3-72.2,12.3c23.6-12.3,27-16.1,28.6-21
				l-12.8-5.6h15c12.1-13,31.3-38.8,23.4-50.7c-6.6-9.8-35.5,3.8-53.9,10.9l-7.8,17.6l1.6-15.1c-58.6,25.5-38.8,5-38.8,5
				s61.2-126.6,25.1-123.7c-14.2,1.1-29.5,9.7-44.6,23.4l-0.4,12.6l-4.5-8c-11,10.7-21.8,23.7-32.1,37.7c14-29.5,24.7-58.4,25.7-80
				l-10.7-1.3l10.6-7.4c-1-10.9-5.3-19.1-14-23.5c-13.4-6.7-27.5,3.4-41.3,23.5l3.4,18.1l-8.6-10.1
				c-49.6,80.8-94.9,279.8-94.9,279.8l-3.6,10.8l145.7,7.2C366.8,473.7,577.7,481.7,569.3,442.8z"/>
		</g>
		<g>
			<defs>
				<rect id="SVGID_8_" y="0" width="283.5" height="283.5"/>
			</defs>
			<clipPath id="SVGID_9_">
				<use xlink:href="#SVGID_8_"  style="overflow:visible;"/>
			</clipPath>
			<g class="st3">
				
					<linearGradient id="SVGID_10_" gradientUnits="userSpaceOnUse" x1="26.82" y1="-18.3544" x2="339.9796" y2="-18.3544" gradientTransform="matrix(1 0 0 -1 0 283.2756)">
					<stop  offset="0" style="stop-color:#213E99"/>
					<stop  offset="0.5621" style="stop-color:#223A66"/>
					<stop  offset="1" style="stop-color:#223A66"/>
				</linearGradient>
				<path class="st4" d="M339.7,272.5c0.8-1.3-0.4-2.8-2.1-2.8H65.4c-21.3,0-38.6,14.3-38.6,31.9l0,0c0,17.6,17.3,31.9,38.6,31.9
					h272.2c1.7,0,2.9-1.5,2.1-2.8l0,0C329,312.3,329,290.9,339.7,272.5z"/>
				
					<linearGradient id="SVGID_11_" gradientUnits="userSpaceOnUse" x1="130.51" y1="-18.6694" x2="337.88" y2="-18.6694" gradientTransform="matrix(1 0 0 -1 0 283.2756)">
					<stop  offset="0" style="stop-color:#F2F5F1"/>
					<stop  offset="0.5621" style="stop-color:#D0E1E7"/>
					<stop  offset="1" style="stop-color:#B6D1DF"/>
				</linearGradient>
				<path class="st5" d="M337.5,276.6H154.9c-13.5,0-24.4,10.9-24.4,24.4v1.8c0,13.5,10.9,24.4,24.4,24.4h183
					C329.7,311,329.6,292.8,337.5,276.6z"/>
			</g>
		</g>
		<g>
			<defs>
				<rect id="SVGID_12_" y="0" width="283.5" height="283.5"/>
			</defs>
			<clipPath id="SVGID_13_">
				<use xlink:href="#SVGID_12_"  style="overflow:visible;"/>
			</clipPath>
			
				<linearGradient id="SVGID_14_" gradientUnits="userSpaceOnUse" x1="8.51" y1="46.7556" x2="212.31" y2="46.7556" gradientTransform="matrix(1 0 0 -1 0 283.2756)">
				<stop  offset="0" style="stop-color:#F2F5F1"/>
				<stop  offset="0.5621" style="stop-color:#D0E1E7"/>
				<stop  offset="1" style="stop-color:#B6D1DF"/>
			</linearGradient>
			<path class="st6" d="M8.5,266.9h175.6c15.6,0,28.2-13.6,28.2-30.4l0,0c0-16.8-12.6-30.4-28.2-30.4H8.5l0,0
				c13.4,16.9,13.9,41.6,1.2,59.1L8.5,266.9z"/>
		</g>
		<g>
			<defs>
				<rect id="SVGID_15_" y="0" width="283.5" height="283.5"/>
			</defs>
			<clipPath id="SVGID_16_">
				<use xlink:href="#SVGID_15_"  style="overflow:visible;"/>
			</clipPath>
			
				<linearGradient id="SVGID_17_" gradientUnits="userSpaceOnUse" x1="3.8399" y1="46.7456" x2="316.25" y2="46.7456" gradientTransform="matrix(1 0 0 -1 0 283.2756)">
				<stop  offset="0" style="stop-color:#213E99"/>
				<stop  offset="0.5621" style="stop-color:#223A66"/>
				<stop  offset="1" style="stop-color:#223A66"/>
			</linearGradient>
			<path class="st7" d="M210,236.5L210,236.5c0-16.8-12.8-30.4-28.5-30.4H5.3c-0.8,0-1.5-0.7-1.5-1.6l0,0c0-0.9,0.7-1.6,1.5-1.6
				h279.5c17.4,0,31.5,15,31.5,33.6l0,0c0,18.5-14.1,33.6-31.5,33.6H5.3c-0.8,0-1.5-0.7-1.5-1.6l0,0c0-0.9,0.7-1.6,1.5-1.6h176.2
				C197.2,266.9,210,253.3,210,236.5z"/>
		</g>
		<g>
			<defs>
				<rect id="SVGID_18_" y="0" width="283.5" height="283.5"/>
			</defs>
			<clipPath id="SVGID_19_">
				<use xlink:href="#SVGID_18_"  style="overflow:visible;"/>
			</clipPath>
			
				<linearGradient id="SVGID_20_" gradientUnits="userSpaceOnUse" x1="-512.0657" y1="498.0908" x2="-458.4116" y2="498.0908" gradientTransform="matrix(-0.9999 1.500000e-02 1.500000e-02 0.9999 -424.0274 -330.5237)">
				<stop  offset="0.3488" style="stop-color:#2FB18F"/>
				<stop  offset="0.5044" style="stop-color:#2CAE8B"/>
				<stop  offset="0.6664" style="stop-color:#23A57E"/>
				<stop  offset="0.8313" style="stop-color:#159569"/>
				<stop  offset="0.9973" style="stop-color:#007F4D"/>
				<stop  offset="1" style="stop-color:#007F4C"/>
			</linearGradient>
			<polygon class="st8" points="45.3,165.1 53.7,166.4 58.5,159.2 67.8,161.3 70.5,152.1 81.2,154 84.7,145.8 95.2,145.9 
				95.2,149.9 87.3,149.8 83.5,158.5 73.3,156.6 70.5,166 60.3,163.7 55.6,170.7 47.8,169.6 45.7,174.8 42,173.3 			"/>
		</g>
		<g>
			<defs>
				<rect id="SVGID_21_" y="0" width="283.5" height="283.5"/>
			</defs>
			<clipPath id="SVGID_22_">
				<use xlink:href="#SVGID_21_"  style="overflow:visible;"/>
			</clipPath>
			
				<linearGradient id="SVGID_23_" gradientUnits="userSpaceOnUse" x1="67.96" y1="233.3056" x2="95.96" y2="233.3056" gradientTransform="matrix(1 0 0 -1 0 283.2756)">
				<stop  offset="0.3488" style="stop-color:#2FB18F"/>
				<stop  offset="0.5044" style="stop-color:#2CAE8B"/>
				<stop  offset="0.6664" style="stop-color:#23A57E"/>
				<stop  offset="0.8313" style="stop-color:#159569"/>
				<stop  offset="0.9973" style="stop-color:#007F4D"/>
				<stop  offset="1" style="stop-color:#007F4C"/>
			</linearGradient>
			<polygon class="st9" points="95.1,52.9 89,54.8 84.9,45.3 75.6,46.9 71.3,40.3 68,42.4 73.6,51.3 82.5,49.7 86.7,59.7 96,56.8 
							"/>
		</g>
		<g>
			<defs>
				<rect id="SVGID_24_" y="0" width="283.5" height="283.5"/>
			</defs>
			<clipPath id="SVGID_25_">
				<use xlink:href="#SVGID_24_"  style="overflow:visible;"/>
			</clipPath>
			<g class="st10">
				
					<linearGradient id="SVGID_26_" gradientUnits="userSpaceOnUse" x1="122.6228" y1="172.751" x2="142.44" y2="172.751" gradientTransform="matrix(1 0 0 -1 0 283.2756)">
					<stop  offset="0" style="stop-color:#F2F5F1"/>
					<stop  offset="0.5621" style="stop-color:#D0E1E7"/>
					<stop  offset="1" style="stop-color:#B6D1DF"/>
				</linearGradient>
				<path class="st11" d="M130.5,111.9c0-0.7,0.9-5.1,0.9-5.1s-2-6.3-2.2-6.3c-4.1-0.3-7.1,2.5-6.4,6.2l0,0.1
					c2.1,6.7,7.8,11.7,14.7,13c1.6,0.3,3.3,0.6,5,0.9c-0.8-2.7-1.3-5.5-1.3-8.3C135.2,112.3,130.5,112.2,130.5,111.9z"/>
				
					<linearGradient id="SVGID_27_" gradientUnits="userSpaceOnUse" x1="137.0588" y1="180.6849" x2="199.3129" y2="180.6849" gradientTransform="matrix(1 0 0 -1 0 283.2756)">
					<stop  offset="0" style="stop-color:#213E99"/>
					<stop  offset="0.5621" style="stop-color:#223A66"/>
					<stop  offset="1" style="stop-color:#223A66"/>
				</linearGradient>
				<path class="st12" d="M199.3,84.1c-0.1-0.3-35.8,22.9-35.8,22.9s-15.2,0.2-26.5,0.1c0,3.4,0.5,6.7,1.4,9.9
					c11.1,2.1,23.8,4.3,26.6,4.1c5.4-0.4,32.3-13.8,32.3-13.8S199.4,84.4,199.3,84.1z"/>
				
					<linearGradient id="SVGID_28_" gradientUnits="userSpaceOnUse" x1="191.2736" y1="155.5379" x2="215.1484" y2="155.5379" gradientTransform="matrix(1 0 0 -1 0 283.2756)">
					<stop  offset="0" style="stop-color:#213E99"/>
					<stop  offset="0.5621" style="stop-color:#223A66"/>
					<stop  offset="1" style="stop-color:#223A66"/>
				</linearGradient>
				<path class="st13" d="M199.7,170.7c-0.1-0.6-7.6-26.4-8.4-49.6c-0.6-18,4.9-34,7.8-37c1.1-1.1,10.8-3.4,10.8-3.4l-3.6,5.9
					c-3.6,6.8-4.6,12.9-6.2,20.6c-4.6,22.4,15.9,67.2,14.9,67.5C213.9,175.1,200,173,199.7,170.7z"/>
				
					<linearGradient id="SVGID_29_" gradientUnits="userSpaceOnUse" x1="115.29" y1="185.0906" x2="139.89" y2="185.0906" gradientTransform="matrix(1 0 0 -1 0 283.2756)">
					<stop  offset="0.3488" style="stop-color:#2FB18F"/>
					<stop  offset="0.5044" style="stop-color:#2CAE8B"/>
					<stop  offset="0.6664" style="stop-color:#23A57E"/>
					<stop  offset="0.8313" style="stop-color:#159569"/>
					<stop  offset="0.9973" style="stop-color:#007F4D"/>
					<stop  offset="1" style="stop-color:#007F4C"/>
				</linearGradient>
				<polygon class="st14" points="121.6,80.4 115.3,84.5 134,116 139.9,90.4 				"/>
				
					<linearGradient id="SVGID_30_" gradientUnits="userSpaceOnUse" x1="125.42" y1="194.7656" x2="139.59" y2="194.7656" gradientTransform="matrix(1 0 0 -1 0 283.2756)">
					<stop  offset="0.3488" style="stop-color:#2FB18F"/>
					<stop  offset="0.5044" style="stop-color:#2CAE8B"/>
					<stop  offset="0.6664" style="stop-color:#23A57E"/>
					<stop  offset="0.8313" style="stop-color:#159569"/>
					<stop  offset="0.9973" style="stop-color:#007F4D"/>
					<stop  offset="1" style="stop-color:#007F4C"/>
				</linearGradient>
				<polygon class="st15" points="125.4,75.4 133.3,101.6 139.6,90.3 				"/>
				
					<linearGradient id="SVGID_31_" gradientUnits="userSpaceOnUse" x1="138.84" y1="199.8806" x2="183.42" y2="199.8806" gradientTransform="matrix(1 0 0 -1 0 283.2756)">
					<stop  offset="0.3488" style="stop-color:#2FB18F"/>
					<stop  offset="0.5044" style="stop-color:#2CAE8B"/>
					<stop  offset="0.6664" style="stop-color:#23A57E"/>
					<stop  offset="0.8313" style="stop-color:#159569"/>
					<stop  offset="0.9973" style="stop-color:#007F4D"/>
					<stop  offset="1" style="stop-color:#007F4C"/>
				</linearGradient>
				<polygon class="st16" points="177.4,72.4 183.4,94.4 138.8,90.3 				"/>
				
					<linearGradient id="SVGID_32_" gradientUnits="userSpaceOnUse" x1="114.6399" y1="105.5699" x2="151.94" y2="105.5699" gradientTransform="matrix(1 0 0 -1 0 283.2756)">
					<stop  offset="0" style="stop-color:#F2F5F1"/>
					<stop  offset="0.5621" style="stop-color:#D0E1E7"/>
					<stop  offset="1" style="stop-color:#B6D1DF"/>
				</linearGradient>
				<path class="st17" d="M151.9,165.3c0,0-18.9,23.1-19,26.5c-0.1,4.8-22.5,3.5-17.6,1.4c1.1-0.5,4.6-2.3,4.9-2.5
					c1.4-1.2,16.4-30.5,16.4-30.5L151.9,165.3z"/>
				<path class="st18" d="M105.5,195.5l14.4-4.5c0,0,5,2.5,13.1,0.9c0,0,2.1,3.4,2.5,7.8c0.1,0.8,0.4,3-0.3,3.1
					c-2.8,0.4-10.4,0.2-19,0.4c0,0-11.6,0.1-18.8-2.3C90,198.7,105.5,195.5,105.5,195.5z"/>
				<path class="st19" d="M243.7,170.8c0,0-17.1-3.9-33-15.3c-18.4-13.2-39.2-26.9-47.4-25.8c-6.6,0.9-45,53.7-45,53.7l18.6,8.1
					l33.6-34.5c0,0,34.3,35.4,45.6,37.8C241.8,200.3,250,181.4,243.7,170.8z"/>
				<path class="st20" d="M114.4,84.5l25.9,54.8c0.1,0.2,0.3,0.4,0.6,0.5l17.3,4.8l-22.1-54.2l-20.6-7
					C114.8,83,114.1,83.8,114.4,84.5z"/>
				<path class="st18" d="M202.4,32.8c0,0,4.8-6.5,10.1,0c0,0,3.2-2.3,6,0.8c0,0,5.9-2.6,8.6,6.4c0,0,3.1-1,4,2.7s-0.7,6.5-0.7,6.5
					s1.9,1.1,1.6,4.7c-0.3,3-2.7,3.8-2.7,3.8s0,5.1-2,6.8c-2,1.8-5,1.4-5,1.4s-0.4,2.8-3,2.9c-2.6,0.1-6-1.9-8.6-0.5
					c-2.7,1.4-10.1,1.2-10.1,1.2s-8.7-2.6-7.3-11.3c0,0-4.8-3.3-1.6-8.5c0,0-3.7-7,1.2-12C197.8,32.7,202.4,32.8,202.4,32.8z"/>
				
					<linearGradient id="SVGID_33_" gradientUnits="userSpaceOnUse" x1="163.94" y1="20.0971" x2="177.8041" y2="20.0971" gradientTransform="matrix(1 0 0 -1 0 283.2756)">
					<stop  offset="0" style="stop-color:#F2F5F1"/>
					<stop  offset="0.5621" style="stop-color:#D0E1E7"/>
					<stop  offset="1" style="stop-color:#B6D1DF"/>
				</linearGradient>
				<path class="st21" d="M176.1,238.9c0,0,1.1,28.5,1.7,33.3c0.6,4.8-12.1,19.3-10.5,14.2c0.4-1.2,1.3-5,1.3-5.4
					c0-1.9-4.7-34.4-4.7-34.4L176.1,238.9z"/>
				<path class="st18" d="M162.5,295.3l6.1-13.8c0,0,5.2-2.1,9.2-9.3c0,0,3.9,0.6,7.5,3.3c0.6,0.5,2.6,1.7,2.2,2.3
					c-1.5,2.4-6.6,8-12.1,14.6c0,0-7.5,8.8-14.1,12.7C154.8,309.1,162.5,295.3,162.5,295.3z"/>
				<path class="st22" d="M163.6,268.6c1.3-1.4-13.5-74.2-6.3-81.3s55.2-17.4,55.2-17.4l6.3-22.2c0,0,20.1,5.9,28.2,18
					c4.4,6.6-0.1,21.7-0.9,23.4c-6.9,14.3-23.8,15-36.1,14.9c-11.3-0.1-31.4-0.3-31.4-0.3l-0.1,64.4c0,0-4.9,1.2-8.8,1
					C164.3,269,163.6,268.6,163.6,268.6z"/>
				<path class="st23" d="M208.1,82.3l13-4.7c0,0,0.4,0,0.5,0c1.4-0.2,16.7,50,21.7,69s-1.6,15.4-1.6,15.4s-11.5,7.1-24.8,7.6
					c-13.9,0.5-11.1-16.2-11.1-16.2s-7.3-34.9-6.4-46.8C200.3,94.8,208.1,82.3,208.1,82.3z"/>
				
					<linearGradient id="SVGID_34_" gradientUnits="userSpaceOnUse" x1="208.146" y1="207.5543" x2="221.1" y2="207.5543" gradientTransform="matrix(1 0 0 -1 0 283.2756)">
					<stop  offset="0" style="stop-color:#F2F5F1"/>
					<stop  offset="0.5621" style="stop-color:#D0E1E7"/>
					<stop  offset="1" style="stop-color:#B6D1DF"/>
				</linearGradient>
				<path class="st24" d="M208.3,72.1l-0.1,6.4l0,1.1c0,0-0.9,10.9,2.2,12.6c3.1,1.7,10.6-14.6,10.6-14.6l-3.4-18.6L208.3,72.1z"/>
				<path class="st25" d="M218.8,65.1c-1.6,6.7-6.7,11.3-10.6,13.4l0.1-6.4l9.4-13L218.8,65.1z"/>
				
					<linearGradient id="SVGID_35_" gradientUnits="userSpaceOnUse" x1="217.5464" y1="226.7606" x2="223.2636" y2="226.7606" gradientTransform="matrix(1 0 0 -1 0 283.2756)">
					<stop  offset="0" style="stop-color:#F2F5F1"/>
					<stop  offset="0.5621" style="stop-color:#D0E1E7"/>
					<stop  offset="1" style="stop-color:#B6D1DF"/>
				</linearGradient>
				<path class="st26" d="M217.6,56.9c0.2,1.9,1.7,3.3,3.3,3.1c1.6-0.2,2.6-1.9,2.4-3.8s-1.7-3.3-3.3-3.1S217.3,55,217.6,56.9z"/>
				
					<linearGradient id="SVGID_36_" gradientUnits="userSpaceOnUse" x1="196.6211" y1="225.614" x2="220.4518" y2="225.614" gradientTransform="matrix(1 0 0 -1 0 283.2756)">
					<stop  offset="0" style="stop-color:#F2F5F1"/>
					<stop  offset="0.5621" style="stop-color:#D0E1E7"/>
					<stop  offset="1" style="stop-color:#B6D1DF"/>
				</linearGradient>
				<path class="st27" d="M208.6,40.2c-6.1-1.3-11.8,3.4-11.9,9.5c-0.1,2.7,0,6,0.4,9.6c0.9,8.7,6.5,16.5,10.4,16
					c3.9-0.5,14.1-7.5,12.9-19.8C219.6,47.9,215,41.5,208.6,40.2z"/>
				<path class="st18" d="M191,38c-3.6,3.7-4.4,8.8-1.8,11.3s7.8,1.5,11.4-2.2s4.4-8.8,1.8-11.3S194.7,34.3,191,38z"/>
				<path class="st18" d="M202,39.3c0.2,1.4,2,2.3,4.1,2c2.1-0.3,3.6-1.6,3.4-3c-0.2-1.4-2-2.3-4.1-2
					C203.3,36.6,201.8,37.9,202,39.3z"/>
				<path class="st18" d="M192.1,51.5c0.2,1.8,1.9,3.1,3.6,2.8s3-1.9,2.8-3.7s-1.9-3.1-3.6-2.8C193.1,48.1,191.9,49.7,192.1,51.5z"
					/>
				
					<linearGradient id="SVGID_37_" gradientUnits="userSpaceOnUse" x1="216.9171" y1="154.1663" x2="258.1361" y2="154.1663" gradientTransform="matrix(1 0 0 -1 0 283.2756)">
					<stop  offset="0" style="stop-color:#213E99"/>
					<stop  offset="0.5621" style="stop-color:#223A66"/>
					<stop  offset="1" style="stop-color:#223A66"/>
				</linearGradient>
				<path class="st28" d="M221.1,77.6c0,0,12.7-2.1,17-0.2c2.7,1.2,6.2,24.2,6.2,24.2s0.1,23.3,1.7,29.9
					c5.4,22.3,12.9,41.8,12.1,42.9c-5.5,4.6-28.7,8.8-30.4,6.6C208.2,157.1,221.1,77.6,221.1,77.6z"/>
				
					<linearGradient id="SVGID_38_" gradientUnits="userSpaceOnUse" x1="180.8912" y1="164.7411" x2="242.34" y2="164.7411" gradientTransform="matrix(1 0 0 -1 0 283.2756)">
					<stop  offset="0" style="stop-color:#F2F5F1"/>
					<stop  offset="0.5621" style="stop-color:#D0E1E7"/>
					<stop  offset="1" style="stop-color:#B6D1DF"/>
				</linearGradient>
				<path class="st29" d="M242.3,101.3c0,0-12.7,39.4-18.3,43.5c-5.6,4.1-30.6-34.5-30.6-34.5s-11.1-6.3-11.9-6.4
					c-3.1-0.3,6.6-1.9,6.6-1.9l1.2-10c0,0,0.5,0.1,3.4,3.3c3.9,4.4,7.3,11.2,8.9,12.4l16.8,12.7l8.5-27.3L242.3,101.3z"/>
				
					<linearGradient id="SVGID_39_" gradientUnits="userSpaceOnUse" x1="136.08" y1="165.3806" x2="163.95" y2="165.3806" gradientTransform="matrix(1 0 0 -1 0 283.2756)">
					<stop  offset="0" style="stop-color:#F2F5F1"/>
					<stop  offset="0.5621" style="stop-color:#D0E1E7"/>
					<stop  offset="1" style="stop-color:#B6D1DF"/>
				</linearGradient>
				<polygon class="st30" points="136.1,90.3 141.4,89.8 163.9,146 158.1,144.5 				"/>
				<path class="st20" d="M186.3,76.6l13.6,66.2c0.2,1.1-0.6,2.1-1.7,2.2l-34.3,1.1l-22.6-56.2L184,75.2
					C185,74.9,186.1,75.5,186.3,76.6z"/>
				
					<linearGradient id="SVGID_40_" gradientUnits="userSpaceOnUse" x1="195.79" y1="170.7938" x2="245.2374" y2="170.7938" gradientTransform="matrix(1 0 0 -1 0 283.2756)">
					<stop  offset="0" style="stop-color:#213E99"/>
					<stop  offset="0.5621" style="stop-color:#223A66"/>
					<stop  offset="1" style="stop-color:#223A66"/>
				</linearGradient>
				<path class="st31" d="M200.1,105.3l-4.4,9.5c0,0,21.4,35.1,28,33.2s19-40,21-50.5c1.9-10.5-2.1-19.2-7.5-20.5
					s-9.6,7.8-11.2,11.7c-1.6,3.9-7.6,31.8-7.6,31.8L200.1,105.3z"/>
				<g>
					
						<linearGradient id="SVGID_41_" gradientUnits="userSpaceOnUse" x1="123.1207" y1="179.9807" x2="130.6703" y2="179.9807" gradientTransform="matrix(1 0 0 -1 0 283.2756)">
						<stop  offset="0" style="stop-color:#F2F5F1"/>
						<stop  offset="0.5621" style="stop-color:#D0E1E7"/>
						<stop  offset="1" style="stop-color:#B6D1DF"/>
					</linearGradient>
					<path class="st32" d="M124.2,105.8c0,0-0.8-1.4-1.1-2.3c-0.3-0.9,5-3.8,7.1-2.5C132.3,102.5,126.7,104.5,124.2,105.8z"/>
				</g>
				<g>
					
						<linearGradient id="SVGID_42_" gradientUnits="userSpaceOnUse" x1="122.8229" y1="176.78" x2="132.0442" y2="176.78" gradientTransform="matrix(1 0 0 -1 0 283.2756)">
						<stop  offset="0" style="stop-color:#F2F5F1"/>
						<stop  offset="0.5621" style="stop-color:#D0E1E7"/>
						<stop  offset="1" style="stop-color:#B6D1DF"/>
					</linearGradient>
					<path class="st33" d="M124.4,109.3c0,0-1.3-1.4-1.6-2.2c-0.3-0.9,6.7-4.4,8.8-3C133.7,105.4,127,108,124.4,109.3z"/>
				</g>
				<g>
					
						<linearGradient id="SVGID_43_" gradientUnits="userSpaceOnUse" x1="125.2207" y1="174.1307" x2="132.8054" y2="174.1307" gradientTransform="matrix(1 0 0 -1 0 283.2756)">
						<stop  offset="0" style="stop-color:#F2F5F1"/>
						<stop  offset="0.5621" style="stop-color:#D0E1E7"/>
						<stop  offset="1" style="stop-color:#B6D1DF"/>
					</linearGradient>
					<path class="st34" d="M126.8,111.7c0,0-1.3-1.4-1.6-2.2c-0.3-0.9,5-3.8,7.1-2.5C134.4,108.3,129.4,110.4,126.8,111.7z"/>
				</g>
				
					<linearGradient id="SVGID_44_" gradientUnits="userSpaceOnUse" x1="178.45" y1="180.6938" x2="193.52" y2="180.6938" gradientTransform="matrix(1 0 0 -1 0 283.2756)">
					<stop  offset="0" style="stop-color:#F2F5F1"/>
					<stop  offset="0.5621" style="stop-color:#D0E1E7"/>
					<stop  offset="1" style="stop-color:#B6D1DF"/>
				</linearGradient>
				<path class="st35" d="M190.4,95.9h-1.1c-0.5,0-1-0.1-1.5-0.2c-2-0.4-7.5-1.5-8-0.4c-0.5,1.3,7.9,2.9,7.9,2.9s-9.3-1.2-9.3,0.4
					s9.4,2.4,9.4,2.4s-8.2-0.3-8.4,0.6s10.1,3.4,10.1,3.4s-8.3-1.8-9.1-0.8s13,6.1,13,6.1L190.4,95.9z"/>
				
					<linearGradient id="SVGID_45_" gradientUnits="userSpaceOnUse" x1="126.6836" y1="170.4128" x2="132.7428" y2="170.4128" gradientTransform="matrix(1 0 0 -1 0 283.2756)">
					<stop  offset="0" style="stop-color:#F2F5F1"/>
					<stop  offset="0.5621" style="stop-color:#D0E1E7"/>
					<stop  offset="1" style="stop-color:#B6D1DF"/>
				</linearGradient>
				<path class="st36" d="M126.8,111.7c0,0,4.6-2.6,5.8-1.8s-3.9,4.7-3.9,4.7l0.6,1.4C129.3,116,126,113.4,126.8,111.7z"/>
			</g>
		</g>
	</g>
</g>
</svg>
