<?xml version="1.0" encoding="utf-8"?>
<!-- Generator: Adobe Illustrator 23.0.0, SVG Export Plug-In . SVG Version: 6.00 Build 0)  -->
<svg version="1.1" xmlns="http://www.w3.org/2000/svg" xmlns:xlink="http://www.w3.org/1999/xlink" x="0px" y="0px"
	 viewBox="0 0 283.68 283.46" style="enable-background:new 0 0 283.68 283.46;" xml:space="preserve">
<style type="text/css">
	.st0{display:none;fill:none;stroke:#5E5E5E;stroke-width:0.5;stroke-miterlimit:10;}
	.st1{opacity:0.2;}
	.st2{fill:#848484;}
	.st3{fill:none;stroke:#FFDD2D;stroke-width:2;stroke-miterlimit:10;}
	.st4{fill:#FFDD2D;}
	.st5{fill:#21C279;}
	.st6{fill:url(#SVGID_11_);}
	.st7{fill:#FB9390;}
	.st8{fill:#0B0754;}
	.st9{fill:url(#SVGID_12_);}
	.st10{fill:#E8605D;}
	.st11{fill:#FA7167;}
	.st12{fill:#EBCE00;}
	.st13{fill:#EEAF08;}
	.st14{fill:url(#SVGID_13_);}
	.st15{fill:url(#SVGID_14_);}
	.st16{opacity:0.5;fill:url(#SVGID_15_);}
	.st17{fill:url(#SVGID_16_);}
	.st18{opacity:0.2;fill:#0B0754;}
	.st19{fill:url(#SVGID_17_);}
	.st20{fill:url(#SVGID_18_);}
	.st21{fill:#FEE65F;}
	.st22{fill:#D99B11;}
	.st23{fill:#FEC314;}
	.st24{fill:#FDE115;}
	.st25{fill:#DCA011;}
	.st26{fill:#FDDE14;}
	.st27{fill:#FEFCF7;}
	.st28{fill:#FEE55C;}
	.st29{fill:#FDE252;}
	.st30{fill:#92B5F9;}
	.st31{fill:#DDE8FE;}
	.st32{fill:#E6EDEF;}
	.st33{fill:url(#SVGID_19_);}
	.st34{fill:url(#SVGID_20_);}
	.st35{fill:#F66491;}
	.st36{fill:url(#SVGID_21_);}
	.st37{fill:#110059;}
	.st38{fill:#070911;}
	.st39{fill:url(#SVGID_22_);}
	.st40{fill:#FFFFFF;}
	.st41{fill:url(#SVGID_23_);}
	.st42{fill:url(#SVGID_24_);}
	.st43{fill:url(#SVGID_25_);}
	.st44{clip-path:url(#SVGID_27_);}
	.st45{fill:url(#SVGID_28_);}
	.st46{opacity:0.2;fill:#110059;}
	.st47{fill:#D5365E;}
	.st48{fill:#FB6392;}
	.st49{opacity:0.1;}
	.st50{fill:url(#SVGID_29_);}
	.st51{fill:url(#SVGID_30_);}
	.st52{opacity:0.2;fill:#9B9B9B;}
	.st53{fill:url(#SVGID_31_);}
	.st54{fill:#C3D6D8;}
	.st55{display:none;fill:#070911;}
	.st56{fill:none;stroke:#1D2D32;stroke-width:0.5594;stroke-miterlimit:10;}
	.st57{fill:url(#SVGID_32_);}
	.st58{opacity:0.6;fill:#AFE6FF;}
	.st59{opacity:0.5;fill:#E1FAFF;}
	.st60{fill:none;stroke:#0F1446;stroke-width:1.0413;stroke-miterlimit:10;}
	.st61{fill:url(#SVGID_33_);}
	.st62{fill:url(#SVGID_34_);}
	.st63{fill:#D6385B;}
	.st64{fill:url(#SVGID_35_);}
	.st65{fill:#FF981D;}
	.st66{fill:#0C9346;}
	.st67{fill:#29C973;}
	.st68{fill:#D9C9CA;}
	.st69{fill:url(#SVGID_36_);}
	.st70{fill:url(#SVGID_37_);}
	.st71{fill:url(#SVGID_38_);}
	.st72{fill:url(#SVGID_39_);}
	.st73{fill:url(#SVGID_40_);}
	.st74{fill:#67B375;}
	.st75{fill:url(#SVGID_41_);}
	.st76{opacity:0.3;fill:#073F1E;}
	.st77{fill:#106331;}
	.st78{opacity:0.5;fill:#EEAF08;}
	.st79{fill:#D8980B;}
	.st80{fill:#FFB96F;}
	.st81{opacity:0.3;fill:#0C9346;}
	.st82{display:none;fill:#1F3765;}
	.st83{fill:#A2CDFC;}
	.st84{fill:url(#SVGID_42_);}
	.st85{opacity:0.2;fill:#606060;}
	.st86{fill:url(#SVGID_43_);}
	.st87{fill:url(#SVGID_44_);}
	.st88{fill:url(#SVGID_45_);}
	.st89{fill:url(#SVGID_46_);}
	.st90{fill:url(#SVGID_47_);}
	.st91{fill:url(#SVGID_48_);}
	.st92{fill:url(#SVGID_49_);}
	.st93{fill:#0C3563;}
	.st94{fill:url(#SVGID_50_);}
	.st95{clip-path:url(#SVGID_52_);fill:#EEAF08;}
	.st96{clip-path:url(#SVGID_52_);fill:url(#SVGID_53_);}
	.st97{clip-path:url(#SVGID_52_);fill:#50BFA5;}
	.st98{clip-path:url(#SVGID_52_);}
	.st99{fill:url(#SVGID_54_);}
	.st100{fill:url(#SVGID_55_);}
	.st101{clip-path:url(#SVGID_52_);fill:url(#SVGID_56_);}
	.st102{clip-path:url(#SVGID_52_);fill:url(#SVGID_57_);}
	.st103{clip-path:url(#SVGID_52_);fill:url(#SVGID_58_);}
	.st104{clip-path:url(#SVGID_52_);fill:url(#SVGID_59_);}
	.st105{fill:url(#SVGID_60_);}
	.st106{fill:url(#SVGID_61_);}
	.st107{fill:url(#SVGID_62_);}
	.st108{fill:url(#SVGID_63_);}
	.st109{fill:url(#SVGID_64_);}
	.st110{fill:url(#SVGID_65_);}
	.st111{fill:url(#SVGID_66_);}
	.st112{fill:#07345A;}
	.st113{fill:url(#SVGID_67_);}
	.st114{fill:url(#SVGID_68_);}
	.st115{opacity:0.4;fill:#606060;}
	.st116{fill:url(#SVGID_69_);}
	.st117{fill:url(#SVGID_70_);}
	.st118{fill:url(#SVGID_71_);}
	.st119{fill:url(#SVGID_72_);}
	.st120{fill:url(#SVGID_73_);}
	.st121{fill:url(#SVGID_74_);}
	.st122{fill:url(#SVGID_75_);}
	.st123{fill:url(#SVGID_76_);}
	.st124{fill:url(#SVGID_77_);}
	.st125{fill:url(#SVGID_78_);}
	.st126{fill:url(#SVGID_79_);}
	.st127{fill:url(#SVGID_80_);}
	.st128{clip-path:url(#SVGID_82_);}
	.st129{fill:url(#SVGID_83_);}
	.st130{fill:#1C1D21;}
	.st131{fill:#9C6F5E;}
	.st132{fill:none;stroke:#223A66;stroke-width:2;stroke-miterlimit:10;}
	.st133{fill:#F2AF2A;}
	.st134{fill:#E87578;}
	.st135{fill:#381905;}
	.st136{fill:url(#SVGID_84_);}
	.st137{opacity:0.3;}
	.st138{fill:#606060;}
	.st139{fill:url(#SVGID_85_);}
	.st140{fill:url(#SVGID_86_);}
	.st141{fill:url(#SVGID_87_);}
	.st142{fill:url(#SVGID_88_);}
	.st143{fill:url(#SVGID_89_);}
	.st144{fill:#BBEFFF;}
	.st145{fill:url(#SVGID_90_);}
	.st146{clip-path:url(#SVGID_92_);}
	.st147{fill:url(#SVGID_93_);}
	.st148{fill:url(#SVGID_94_);}
	.st149{fill:url(#SVGID_95_);}
	.st150{fill:url(#SVGID_96_);}
	.st151{fill:url(#SVGID_97_);}
	.st152{fill:url(#SVGID_98_);}
	.st153{fill:url(#SVGID_99_);}
	.st154{fill:url(#SVGID_100_);}
	.st155{clip-path:url(#SVGID_102_);}
	.st156{opacity:0.6;}
	.st157{fill:none;}
	.st158{opacity:0.5;}
	.st159{opacity:0.54;fill:#3A3434;}
</style>
<g id="Layer_1">
</g>
<g id="Layer_2">
</g>
<g id="Layer_3">
</g>
<g id="Layer_4">
	<linearGradient id="SVGID_2_" gradientUnits="userSpaceOnUse" x1="175.7767" y1="104.152" x2="1.9186" y2="296.0673">
		<stop  offset="0" style="stop-color:#8B56CD"/>
		<stop  offset="0.3488" style="stop-color:#8B56CD"/>
		<stop  offset="0.4801" style="stop-color:#8754CA"/>
		<stop  offset="0.6169" style="stop-color:#7A4FC2"/>
		<stop  offset="0.7561" style="stop-color:#6547B5"/>
		<stop  offset="0.8962" style="stop-color:#493CA3"/>
		<stop  offset="1" style="stop-color:#2E3192"/>
	</linearGradient>
	<rect style="fill:url(#SVGID_2_);" width="283.46" height="283.46"/>
	<linearGradient id="SVGID_4_" gradientUnits="userSpaceOnUse" x1="276.1401" y1="-8.1617" x2="7.3245" y2="288.5736">
		<stop  offset="0.3488" style="stop-color:#2FB18F"/>
		<stop  offset="0.5044" style="stop-color:#2CAE8B"/>
		<stop  offset="0.6664" style="stop-color:#23A57E"/>
		<stop  offset="0.8313" style="stop-color:#159569"/>
		<stop  offset="0.9973" style="stop-color:#007F4D"/>
		<stop  offset="1" style="stop-color:#007F4C"/>
	</linearGradient>
	<rect y="-1.53" style="fill:url(#SVGID_4_);" width="283.46" height="283.46"/>
	<g>
		<g>
			
				<ellipse transform="matrix(0.9904 -0.1385 0.1385 0.9904 -30.049 34.0028)" class="st35" cx="229.32" cy="232.94" rx="161.72" ry="5.23"/>
			<path class="st35" d="M94.93,222.47l261.7-36.59c14.92-16.57,21.55-36.28,15.81-53.33c-2.38-7.08-6.68-13.04-12.42-17.77
				c-12.05-9.92-21.07-23.49-24.72-39.23c-0.64-2.78-1.46-5.54-2.46-8.28c-12.15-33.23-47.38-50.34-79.63-38.67
				c-10.17,3.68-18.92,9.75-25.9,17.39c-11.54,12.64-26.72,20.83-43.16,22.62c-12.59,1.37-25.71,4.55-38.83,9.67
				c-56.86,22.19-92.1,72.43-78.7,112.22C71.33,204.45,81.4,215.26,94.93,222.47z"/>
		</g>
	</g>
	<g>
		<g>
			
				<linearGradient id="SVGID_6_" gradientUnits="userSpaceOnUse" x1="112.3275" y1="225.2286" x2="373.8034" y2="129.7135" gradientTransform="matrix(0.9961 0.0885 -0.0885 0.9961 11.2047 -20.0131)">
				<stop  offset="0" style="stop-color:#7338DC"/>
				<stop  offset="0.0321" style="stop-color:#7642D7"/>
				<stop  offset="0.0945" style="stop-color:#7A51D0"/>
				<stop  offset="0.1467" style="stop-color:#7B56CD"/>
				<stop  offset="0.1832" style="stop-color:#6F50C4"/>
				<stop  offset="0.2765" style="stop-color:#5745B2"/>
				<stop  offset="0.3827" style="stop-color:#453CA4"/>
				<stop  offset="0.5077" style="stop-color:#38369A"/>
				<stop  offset="0.6694" style="stop-color:#303294"/>
				<stop  offset="1" style="stop-color:#2E3192"/>
			</linearGradient>
			<path style="fill:url(#SVGID_6_);" d="M358.86,142.72c5.1,4.31,8.06,10.84,8.08,17.79l0.07,28.77
				c0.03,10.42-7.29,19.36-17.08,20.87l-244.17,37.7c-5.57,0.86-10.99-2.08-13.52-7.33l-4.44-11.4l-2.4-8.27
				c-0.41-1.79-0.41-3.66,0.04-5.45c2.39-9.58,7.29-18.95,16.89-25.54l58.63-37.82c33.23-24.41,58.59-33.31,91.59-37.92l0,0
				c21.48-3,43.21-2.66,64.5,1.01l22.28,3.84c3.9,0.67,6.66,4.32,6.42,8.5l-0.22,3.97L358.86,142.72z"/>
			<path class="st37" d="M236.4,200.97l-60.98,8.53c-1.63,0.23-3.1-0.98-3.29-2.7l0,0c-0.19-1.72,0.98-3.29,2.61-3.52l60.98-8.53
				c1.63-0.23,3.1,0.98,3.29,2.7l0,0C239.2,199.17,238.03,200.74,236.4,200.97z"/>
			<path class="st37" d="M288.96,193.62l-31.57,4.41c-1.63,0.23-3.1-0.98-3.29-2.7l0,0c-0.19-1.72,0.98-3.29,2.61-3.52l31.57-4.41
				c1.63-0.23,3.1,0.98,3.29,2.7l0,0C291.75,191.82,290.59,193.4,288.96,193.62z"/>
			<g>
				<polygon class="st37" points="249.59,221.66 245.36,155.87 244.39,155.95 248.62,221.8 				"/>
			</g>
			<path class="st37" d="M87.8,229.13c2.25,4.67,10.51,6.35,15.46,5.59l245.2-37.86c9.79-1.51,18.54-10.46,18.51-20.87
				c0,0-0.04-18.31-0.04-15.47l0.07,28.75c0.03,10.43-7.3,19.38-17.1,20.9l-244.13,37.7c-5.58,0.86-11.01-2.08-13.54-7.35
				L87.8,229.13L87.8,229.13z"/>
			<path class="st37" d="M177.25,236.76c0,0-5.58-2.91-7.43-19.66c-2.07-18.72-18.15-31.89-35.92-29.4
				c-17.77,2.48-30.5,19.68-28.44,38.4c0.78,7.03,4.02,15.64,8.09,20.57C113.55,246.65,160.25,239.58,177.25,236.76z"/>
			<path class="st37" d="M314.89,130.07L314.89,130.07c2.78,2.14,3.06,6.43,0.58,9.04l-1.72,1.82c-2.37,2.5-5.43,4.16-8.72,4.73
				l-147.63,25.46c-2.1,0.36-3.16-2.52-1.4-3.8l20.97-15.18c21.37-15.47,45.85-25.4,71.4-28.97l4.21-0.59
				c15.54-2.17,31.27-1.96,46.68,0.63l0,0C304.92,124.16,310.28,126.51,314.89,130.07z"/>
			
				<linearGradient id="SVGID_8_" gradientUnits="userSpaceOnUse" x1="94.8738" y1="221.0609" x2="109.1742" y2="221.0609" gradientTransform="matrix(0.9961 0.0885 -0.0885 0.9961 11.2047 -20.0131)">
				<stop  offset="0" style="stop-color:#F2F5F1"/>
				<stop  offset="0.5621" style="stop-color:#D0E1E7"/>
				<stop  offset="1" style="stop-color:#B6D1DF"/>
			</linearGradient>
			<path style="fill:url(#SVGID_8_);" d="M100.75,205l-1.58,3.32c-1.48,3.13-4.34,5.28-7.61,5.74l-4.91,0.69
				c-0.63,0.09-1.12-0.54-0.94-1.18c0.77-2.69,1.75-5.35,2.99-7.92c0.13-0.28,0.39-0.47,0.68-0.51l10.48-1.47
				C100.56,203.58,101.06,204.33,100.75,205z"/>
			
				<ellipse transform="matrix(0.1443 -0.9895 0.9895 0.1443 -101.1789 324.8141)" class="st38" cx="137.22" cy="220.91" rx="31.46" ry="29.73"/>
			
				<linearGradient id="SVGID_10_" gradientUnits="userSpaceOnUse" x1="128.4904" y1="228.8196" x2="165.2073" y2="228.8196" gradientTransform="matrix(0.9961 0.0885 -0.0885 0.9961 11.2047 -20.0131)">
				<stop  offset="0" style="stop-color:#F2F5F1"/>
				<stop  offset="0.5621" style="stop-color:#D0E1E7"/>
				<stop  offset="1" style="stop-color:#B6D1DF"/>
			</linearGradient>
			<path style="fill:url(#SVGID_10_);" d="M118.97,223.46c1.17,10.62,10.29,18.09,20.37,16.68s17.3-11.16,16.13-21.78
				c-1.17-10.62-10.29-18.09-20.37-16.68S117.8,212.84,118.97,223.46z"/>
			<g>
				<defs>
					<path id="SVGID_26_" d="M314.55,127L314.55,127c2.78,2.14,3.06,6.43,0.58,9.04l-1.72,1.82c-2.37,2.5-5.43,4.16-8.72,4.73
						l-147.63,25.46c-2.1,0.36-3.16-2.52-1.4-3.8l20.97-15.18c21.37-15.47,45.85-25.4,71.4-28.97l4.21-0.59
						c15.54-2.17,31.27-1.96,46.68,0.63l0,0C304.58,121.1,309.94,123.44,314.55,127z"/>
				</defs>
				<use xlink:href="#SVGID_26_"  style="overflow:visible;fill:#110059;"/>
				<clipPath id="SVGID_11_">
					<use xlink:href="#SVGID_26_"  style="overflow:visible;"/>
				</clipPath>
				<g style="clip-path:url(#SVGID_11_);">
					
						<linearGradient id="SVGID_12_" gradientUnits="userSpaceOnUse" x1="159.4583" y1="144.0749" x2="317.8843" y2="144.0749" gradientTransform="matrix(0.9961 0.0885 -0.0885 0.9961 11.2047 -20.0131)">
						<stop  offset="0" style="stop-color:#F2F5F1"/>
						<stop  offset="0.5621" style="stop-color:#D0E1E7"/>
						<stop  offset="1" style="stop-color:#B6D1DF"/>
					</linearGradient>
					<path class="st9" d="M314.55,127L314.55,127c2.78,2.14,3.06,6.43,0.58,9.04l-1.72,1.82c-2.37,2.5-5.43,4.16-8.72,4.73
						l-147.63,25.46c-2.1,0.36-3.16-2.52-1.4-3.8l20.97-15.18c21.37-15.47,45.85-25.4,71.4-28.97l4.21-0.59
						c15.54-2.17,31.27-1.96,46.68,0.63l0,0C304.58,121.1,309.94,123.44,314.55,127z"/>
					<path class="st46" d="M155.68,167.77c0.1-0.11,0.21-0.21,0.33-0.3l20.97-15.18c21.37-15.47,45.85-25.4,71.4-28.97l4.21-0.59
						c15.54-2.17,31.27-1.96,46.68,0.63c5.67,0.95,11.03,3.3,15.64,6.86c0.86,0.66,1.47,1.52,1.85,2.48
						c0.32-2.11-0.44-4.33-2.2-5.69c-4.61-3.56-9.97-5.9-15.64-6.86c-15.41-2.59-31.13-2.8-46.68-0.63l-4.21,0.59
						c-25.55,3.57-50.02,13.5-71.4,28.97l-20.97,15.18C154.35,165.2,154.6,167.04,155.68,167.77z"/>
					<path class="st46" d="M241.89,121.09c-23.32,4.22-45.6,13.76-65.26,27.98l-20.97,15.18c-1.76,1.27-0.7,4.16,1.4,3.8
						l88.34-15.23L241.89,121.09z"/>
					<g>
						<g>
							<path class="st47" d="M202.39,160c0.16,1.45-2.86,5.51,1.17,5.84c0.49,0.04,2.29-0.48,4.37-1.2
								c5.22-1.81,10.02-4.89,13.83-9.1c0.89-0.98,1.6-1.95,2.08-2.74c2.96-4.85-6.11-3.16-7.25-4.32
								C214.56,146.42,209.07,155.39,202.39,160z"/>
							<path class="st47" d="M201.16,165.89c-4.66-0.03-8.71-0.24-11.6-1.38l0.13-2.68c0,0,8.17-1.53,10.63-1.64
								c1.98-0.09,4.08-0.71,4.39,0.53c0.07,0.26,0.08,0.57,0.05,0.89C204.57,163.76,203.2,165.91,201.16,165.89z"/>
							<path class="st48" d="M219.12,146.93c0,0,6.94-2.01,10.18,0.35c2.52,1.84,2.35,12.29,3.54,18.72
								c2.87,15.52,4.27,26.82,4.27,26.82s-17.8,3.36-25.85,2.4c2.83-20.77-3.22-33.21-0.73-40.85
								C211.94,150.04,213.96,148.04,219.12,146.93z"/>
							<path class="st8" d="M240.18,134.14c-1.67-4.49-6.01-7.27-10.53-6.51c-1.39-2.28-3.71-4-6.22-4.58
								c-4.96-1.16-11.66,0.7-11.46,6c-1.91,3.53-1.97,8.61,0.98,11.37c-1.01,4.77,3.44,9.47,9.21,9.41
								c2.02,3.38,5.85,5.6,9.66,5.21c0.91-0.09,2.31-0.3,2.54-0.24c-0.29-0.06,6.13,5.01,11.54-2.52
								C251.42,144.59,247.5,135.1,240.18,134.14z"/>
							<path class="st49" d="M224.01,169.4c0,0-6.42-2.98-11.08,1.04L224.01,169.4z"/>
							
								<linearGradient id="SVGID_13_" gradientUnits="userSpaceOnUse" x1="217.8529" y1="150.8265" x2="227.7219" y2="150.8265" gradientTransform="matrix(0.9961 0.0885 -0.0885 0.9961 11.2047 -20.0131)">
								<stop  offset="0" style="stop-color:#F2F5F1"/>
								<stop  offset="0.5621" style="stop-color:#D0E1E7"/>
								<stop  offset="1" style="stop-color:#B6D1DF"/>
							</linearGradient>
							<path class="st14" d="M218.06,153.16c-3.52-1.14-5.43-5.13,1.06-6.23c0,0,2.12-0.75,4.99-0.08c0.97,0.22,0.79,1.9,0.55,2.92
								C224.05,152.34,222.14,154.48,218.06,153.16z"/>
							<g>
								
									<linearGradient id="SVGID_14_" gradientUnits="userSpaceOnUse" x1="219.7186" y1="145.7906" x2="225.7017" y2="145.7906" gradientTransform="matrix(0.9961 0.0885 -0.0885 0.9961 11.2047 -20.0131)">
									<stop  offset="0" style="stop-color:#F2F5F1"/>
									<stop  offset="0.5621" style="stop-color:#D0E1E7"/>
									<stop  offset="1" style="stop-color:#B6D1DF"/>
								</linearGradient>
								<polygon class="st15" points="217.73,148.22 222.88,147.82 222.54,141.62 217.39,142.03 								"/>
								<path class="st52" d="M217.67,147.1c2.19,0.06,3.67-1.21,5.02-2.7l-0.15-2.78l-5.15,0.4L217.67,147.1z"/>
								
									<linearGradient id="SVGID_15_" gradientUnits="userSpaceOnUse" x1="214.1859" y1="138.6639" x2="226.7201" y2="138.6639" gradientTransform="matrix(0.9961 0.0885 -0.0885 0.9961 11.2047 -20.0131)">
									<stop  offset="0" style="stop-color:#F2F5F1"/>
									<stop  offset="0.5621" style="stop-color:#D0E1E7"/>
									<stop  offset="1" style="stop-color:#B6D1DF"/>
								</linearGradient>
								<path style="fill:url(#SVGID_15_);" d="M217.24,145.44c0.13,0.05,0.29,0.09,0.47,0.12c0.47,0.07,0.86-0.01,1.1-0.09
									c0.21-0.02,0.5-0.06,0.82-0.18c0.26-0.1,0.51-0.24,0.73-0.41l1.45-1.11c1.96-1.5,3.05-3.81,2.92-6.19l-0.41-7.46
									c-4.4,1.58-6.78,1.42-8.16,0.91c-0.37-0.14-1.41-0.56-2.26-0.09c-0.78,0.43-1.03,1.43-1.21,2.1
									c-0.26,1.04-0.18,1.73-0.12,3.03c0.14,3.17-0.21,2.76,0.03,3.74c0.37,1.48,1.19,2.44,2.8,4.35c0.17,0.2,0.45,0.51,0.88,0.8
									C216.66,145.21,217,145.36,217.24,145.44z"/>
								<path class="st54" d="M223.22,137.07c-0.01,0.96,0.59,2.02,1.4,2.21c0.1,0.02,0.49,0.1,0.84-0.11
									c0.31-0.19,0.42-0.52,0.56-1.11c0.33-1.4,0.49-2.09,0.23-2.54c-0.25-0.41-0.76-0.8-1.3-0.78
									C223.98,134.76,223.23,136.01,223.22,137.07z"/>
								<path class="st52" d="M234.4,129.6L234.4,129.6c1.31-0.1,2.37-1.31,2.53-2.88l0.04-0.44l0,0c0.61,1.81,2.11,2.95,3.73,2.82
									l5.64-0.44l-0.24-4.4c-0.15-2.78-2.14-4.88-4.45-4.7l-3.61,0.28c-2.3,0.18-4.04,2.58-3.89,5.36L234.4,129.6z"/>
								<path class="st55" d="M211.24,134.84L211.24,134.84c1.5-0.12,2.72-1.34,2.91-2.91l0.05-0.44l0,0
									c0.68,1.81,2.39,2.93,4.24,2.78l6.45-0.51l-0.24-4.4c-0.15-2.78-2.41-4.86-5.04-4.65l-4.12,0.32
									c-2.63,0.21-4.64,2.63-4.49,5.4L211.24,134.84z"/>
							</g>
							<path class="st47" d="M208.29,164.66c0.16,1.45-2.86,5.51,1.17,5.84c0.49,0.04,2.29-0.48,4.37-1.2
								c5.22-1.81,10.02-4.89,13.83-9.1c0.89-0.98,1.6-1.95,2.08-2.74c2.96-4.85,0.71-9.01-0.43-10.17
								C227.28,145.23,214.97,160.05,208.29,164.66z"/>
						</g>
						
							<linearGradient id="SVGID_16_" gradientUnits="userSpaceOnUse" x1="187.372" y1="166.0774" x2="194.3444" y2="166.0774" gradientTransform="matrix(0.9961 0.0885 -0.0885 0.9961 11.2047 -20.0131)">
							<stop  offset="0" style="stop-color:#F2F5F1"/>
							<stop  offset="0.5621" style="stop-color:#D0E1E7"/>
							<stop  offset="1" style="stop-color:#B6D1DF"/>
						</linearGradient>
						<path class="st17" d="M189.66,162.42l-3.24-0.98c0,0-0.49-1.75-0.99-1.84c-0.56-0.11-1.65,1.16-2.1,1.73
							c-0.13,0.16-0.19,0.38-0.17,0.59l0.23,2.09c0.04,0.36,0.32,0.64,0.66,0.67l1.95,0.16l1.11-0.49l2.79,0.28L189.66,162.42z"/>
						<g>
							<path class="st37" d="M180.88,175.98c-3.74,0.52-7.22-4.05-7.92-10.41c-0.7-6.36,1.68-11.75,5.42-12.27
								c3.74-0.52,7.22,4.05,7.92,10.41C187,170.06,184.62,175.45,180.88,175.98z M178.63,155.61c-2.16,0.3-4.07,4.25-3.47,9.65
								c0.6,5.4,3.3,8.7,5.46,8.4c2.16-0.3,4.07-4.25,3.47-9.65C183.5,158.61,180.79,155.31,178.63,155.61z"/>
						</g>
						<path class="st8" d="M219.3,126.6c0,0,1.53,5.71,3.54,6.51c2.01,0.81,1.56,3.48,1.56,3.48s0.94-6.2-0.79-7.93
							C221.87,126.93,219.3,126.6,219.3,126.6z"/>
					</g>
					<g>
						<path class="st58" d="M242.33,153.34l-1.2-10.86c-17.44,3.71-34.23,10.22-49.69,19.63L242.33,153.34z"/>
						<path class="st59" d="M200.79,160.5c-2.54-0.9-5.14-0.51-5.53-0.45c-1.12,0.64-2.24,1.31-3.35,1.98L200.79,160.5z"/>
					</g>
					<path class="st37" d="M236.37,155.17l13.86-1.43L245.75,120c-0.14-0.99-1-1.67-1.94-1.54l-4.92,0.69
						c-0.86,0.12-1.52,0.89-1.55,1.81L236.37,155.17z"/>
				</g>
			</g>
		</g>
		<line class="st60" x1="85.05" y1="219.63" x2="106.82" y2="216.59"/>
	</g>
	<g>
		<linearGradient id="SVGID_17_" gradientUnits="userSpaceOnUse" x1="60.2578" y1="202.1861" x2="142.5089" y2="202.1861">
			<stop  offset="0" style="stop-color:#213E99"/>
			<stop  offset="0.5621" style="stop-color:#223A66"/>
			<stop  offset="1" style="stop-color:#223A66"/>
		</linearGradient>
		<path class="st19" d="M136.86,143.18c-2.04-2.47-3.42-4.1-4.02-4.85c-8.47-10.47-9.36-12.98-14.11-17.06
			c-4.61-3.95-9.12-6.17-11.91-7.35c-1.12,0.63-3.9,1.99-7.57,1.68c-2.28-0.19-4.03-0.96-5.07-1.53c-2.48,1.2-5.77,2.96-9.41,5.44
			c-0.61,0.42-8.58,5.9-14.1,12.48c-6.02,7.17-8.78,15.24-10.4,22.64c0.09,0.15,0.17,0.29,0.26,0.44c0.38,0.34,0.69,0.8,0.87,1.41
			c0.01,0.02,0.01,0.04,0.02,0.06c1.83,2.95,4.13,5.84,7.68,5.3c0.1-0.02,0.77-0.14,1.53,0.12c0.24,0.08,0.42,0.18,0.52,0.23
			c0.26-0.02,0.65-0.08,1.08-0.26c0.47-0.2,0.8-0.47,0.99-0.66c2.42-3.8,3.48-5.79,3.99-6.92c0.12-0.27,0.73-1.62,1.62-3.42
			c0.24-0.47,0.43-0.85,0.56-1.1c0.49-0.46,1.1-0.95,1.33-0.79c0.41,0.28-0.58,2.41-0.81,2.92c-1.29,2.85-1.73,6.44-2.61,13.6
			c-0.91,7.35-0.78,13.38-0.71,16c0.62,24.82,1.57,42.19,1.57,42.19c1.06,19.48,0.71,16.56,1.62,32.2
			c0.78,13.57,1.59,25.27,2.28,34.5c1.64-0.03,3.28-0.06,4.93-0.09c0,0,6.47-56.46,13.53-81.75c0,0,0.48-3.82,2.3,0
			c0,0,12.4,71.75,13.28,81.75c2.69-0.72,4.41-1.18,4.41-1.18c0,0,0.83-14.47,1.18-21.61c0.51-10.66,0.54-18.92,0.59-34.99
			c0.07-24.66-0.43-20.14-0.23-35.73c0.24-19.92,1.11-32.44-2.5-51.02c-0.21-1.06-0.38-1.92-0.5-2.5c0.21,0.28,0.52,0.67,0.9,1.14
			c0,0,2.84,3.53,6.01,6.55c1.83,1.74,4.94,4.33,9.23,7.14c1.23-0.95,2.64-2.18,4.06-3.75c1.4-1.54,2.48-3.03,3.3-4.33
			C141.28,148.57,139.31,146.15,136.86,143.18z"/>
		<linearGradient id="SVGID_18_" gradientUnits="userSpaceOnUse" x1="94.7554" y1="106.7161" x2="110.8907" y2="106.7161">
			<stop  offset="0" style="stop-color:#F2F5F1"/>
			<stop  offset="0.5621" style="stop-color:#D0E1E7"/>
			<stop  offset="1" style="stop-color:#B6D1DF"/>
		</linearGradient>
		<path class="st20" d="M94.76,113.19c0,0,0.15-5.15,1.91-9.56l-0.96-5.29l14.29-2.94c0,0,3.42,11.91-3.19,18.53l-3.38,4.12
			l-6.18-1.62l-2.5-1.47V113.19z"/>
		<path class="st63" d="M102.05,102.71c0,0,0.39,2.48,1.32,3.91c0.94,1.43,4.02,1.21,6.07,0.28c0.3-0.14,0.56-0.16,0.78-0.09
			c1.16,0.38,1.7,3.89,0.05,5.82c-0.21,0.24-0.76,0.87-1.65,1.1c-1.42,0.37-2.8-0.49-4.69-1.65c-0.14-0.09-0.72-0.45-1.43-0.99
			c-1-0.77-1.61-1.23-2.1-1.87c-1.3-1.74-1.03-3.87-1.02-4c0.25-1.82,1.37-2.94,1.73-3.28
			C101.37,101.58,101.75,101.45,102.05,102.71z"/>
		<path class="st63" d="M94.39,97.75c0,0,0.66,1.21,0.72,2.98c0,0,2.04-0.5,3.8,2.43c0,0-0.88-7.39,2.76-3.69
			c0,0,0.71-2.21,1.12-1.71l-4.65-1.16L94.39,97.75z"/>
		<linearGradient id="SVGID_19_" gradientUnits="userSpaceOnUse" x1="91.0819" y1="91.3706" x2="115.3434" y2="91.3706">
			<stop  offset="0" style="stop-color:#213E99"/>
			<stop  offset="0.5621" style="stop-color:#223A66"/>
			<stop  offset="1" style="stop-color:#223A66"/>
		</linearGradient>
		<path class="st33" d="M93.45,97.75c0,0-0.28-0.39-0.72-2.65c0,0-2.54-0.22-1.32-3.03c1.21-2.81,12.35-7.11,14.56-7.44
			c2.21-0.33,5.13-0.66,3.86,2.98c-1.27,3.64,2.48,5.73,4.47,6.01c0.72,0.1,1.02,0.52,1.05,0.86c0.08,1.1-3.92,2.21-5.19,2.56
			c-2.96,0.82-5.4,1.01-7.5,1.16c-2.66,0.19-4.42,0.1-4.85,0.08C96.06,98.17,94.58,97.96,93.45,97.75z"/>
		<polygon class="st65" points="107.01,92.51 107.28,94.11 108.39,92.51 109.54,93.06 108.94,91.57 109.21,90.3 108.28,90.3 
			107.01,89.42 106.62,90.97 105.46,91.76 		"/>
		<path class="st66" d="M121.51,178.58c0,0-21.72,6.07-44.22,0.99v13.23c0,0,30.55,5.07,44.22,0c0,0,1.1-12.02,0-14.78"/>
		<path class="st67" d="M72.33,185.19c0,0,3.09-2.54,6.51,6.62c3.42,9.15,8.27,5.4,7.61-0.44s-2.54-14.45-5.4-13.78
			s-8.71,1.87-8.71,1.87s-2.1,0.44-1.98,2.65C70.46,184.31,70.84,185.47,72.33,185.19z"/>
		<g>
			<g>
				<path class="st32" d="M126.21,136.85c-0.26-0.51-0.53-1.31-0.88-1.38c-2.19-0.39-2.77-2.73-1-2.29
					c1.02,0.26,3.12,0.99,3.83,1.76c0.52,0.56,2.1,3.12,2.1,3.12S127.65,139.76,126.21,136.85z"/>
			</g>
		</g>
		<path class="st68" d="M111.56,152.8l14.46-4.02c1.91-0.53,3.04-2.52,2.51-4.43l-4.98-17.91c-0.53-1.91-2.52-3.04-4.43-2.51
			l-14.46,4.02c-1.91,0.53-3.04,2.52-2.51,4.43l4.98,17.91C107.66,152.21,109.66,153.33,111.56,152.8z"/>
		<g>
			<g>
				
					<linearGradient id="SVGID_20_" gradientUnits="userSpaceOnUse" x1="855.2239" y1="-167.5187" x2="867.0738" y2="-167.5187" gradientTransform="matrix(-0.6854 0.7282 0.7282 0.6854 838.9394 -369.8428)">
					<stop  offset="0" style="stop-color:#F2F5F1"/>
					<stop  offset="0.5621" style="stop-color:#D0E1E7"/>
					<stop  offset="1" style="stop-color:#B6D1DF"/>
				</linearGradient>
				<path class="st34" d="M131.28,140.97c0.08-1.43-1.19-3.28-2.1-4.38c-0.69,0.34-1.39,0.67-2.08,1.01
					c-0.52-0.65-3.28-3.99-6.32-4.56c-0.51-0.1-1.34-0.24-2.24,0.15c-1.16,0.5-1.7,1.56-1.87,1.95l0,0c0,0,0.46,2.33,0.52,2.63
					c0.47,2.28,2.07,4.97,3.05,6.31c4.49,6.17,13.84,8.73,13.84,8.73l0,0l5.24-5.35C139.32,147.44,132.19,142.97,131.28,140.97z"/>
			</g>
		</g>
		<polygon class="st67" points="96.96,130.19 101.38,135.46 102.25,135.84 102.25,135.02 98.14,129.73 		"/>
		<linearGradient id="SVGID_21_" gradientUnits="userSpaceOnUse" x1="86.5093" y1="131.7279" x2="100.4805" y2="131.7279">
			<stop  offset="0" style="stop-color:#F2F5F1"/>
			<stop  offset="0.5621" style="stop-color:#D0E1E7"/>
			<stop  offset="1" style="stop-color:#B6D1DF"/>
		</linearGradient>
		<path class="st36" d="M86.51,135.46l2.51-9.22c0,0,3.53-3.7,5.73-2.86s8.99,4.15,3.83,9.55c-5.16,5.4-8.69,7.28-8.69,7.28
			L86.51,135.46z"/>
		<linearGradient id="SVGID_22_" gradientUnits="userSpaceOnUse" x1="129.1606" y1="151.753" x2="143.4491" y2="151.753">
			<stop  offset="0" style="stop-color:#213E99"/>
			<stop  offset="0.5621" style="stop-color:#223A66"/>
			<stop  offset="1" style="stop-color:#223A66"/>
		</linearGradient>
		<path class="st39" d="M135.15,158.15c0,0-5.74-5.72-5.99-9.09c0,0,0.37-2.89,5.41-4.9c0,0,6.88,3.25,7.65,5.11
			C142.98,151.12,146.88,163.12,135.15,158.15z"/>
		<linearGradient id="SVGID_23_" gradientUnits="userSpaceOnUse" x1="59.3998" y1="149.904" x2="91.3928" y2="149.904">
			<stop  offset="0" style="stop-color:#213E99"/>
			<stop  offset="0.5621" style="stop-color:#223A66"/>
			<stop  offset="1" style="stop-color:#223A66"/>
		</linearGradient>
		<path class="st41" d="M60.26,154.62c0,0,13.3-17.18,26.25-19.17c0,0,6.34,1.33,4.57,4.75c0,0-9.65,14.2-18.72,23.14
			C72.36,163.35,55.46,168.71,60.26,154.62z"/>
	</g>
</g>
<g id="Layer_5">
</g>
<g id="Layer_6">
</g>
<g id="Layer_7">
</g>
</svg>
