<?xml version="1.0" encoding="iso-8859-1"?>
<!-- Generator: Adobe Illustrator 19.0.0, SVG Export Plug-In . SVG Version: 6.00 Build 0)  -->
<svg version="1.1" id="Capa_1" xmlns="http://www.w3.org/2000/svg" xmlns:xlink="http://www.w3.org/1999/xlink" x="0px" y="0px"
	 viewBox="0 0 480 480" style="enable-background:new 0 0 480 480;" xml:space="preserve">
<g>
	<g>
		<path d="M344.968,0H135.032C122.317,0.013,112.013,10.317,112,23.032v433.936c0.013,12.715,10.317,23.019,23.032,23.032h209.936
			c12.715-0.013,23.019-10.317,23.032-23.032V23.032C367.987,10.317,357.683,0.013,344.968,0z M352,456.968
			c-0.009,3.88-3.152,7.023-7.032,7.032H135.032c-3.88-0.009-7.023-3.152-7.032-7.032V432h224V456.968z M352,416H128V64h224V416z
			 M352,48H128V23.032c0.009-3.88,3.152-7.023,7.032-7.032h209.936c3.88,0.009,7.023,3.152,7.032,7.032V48z"/>
	</g>
</g>
<g>
	<g>
		<rect x="216" y="24" width="48" height="16"/>
	</g>
</g>
<g>
	<g>
		<rect x="328" y="24" width="16" height="16"/>
	</g>
</g>
<g>
	<g>
		<rect x="224" y="440" width="32" height="16"/>
	</g>
</g>
<g>
</g>
<g>
</g>
<g>
</g>
<g>
</g>
<g>
</g>
<g>
</g>
<g>
</g>
<g>
</g>
<g>
</g>
<g>
</g>
<g>
</g>
<g>
</g>
<g>
</g>
<g>
</g>
<g>
</g>
</svg>
