<?xml version="1.0" encoding="utf-8"?>
<!-- Generator: Adobe Illustrator 23.0.0, SVG Export Plug-In . SVG Version: 6.00 Build 0)  -->
<svg version="1.1" xmlns="http://www.w3.org/2000/svg" xmlns:xlink="http://www.w3.org/1999/xlink" x="0px" y="0px"
	 viewBox="0 0 283.68 283.46" style="enable-background:new 0 0 283.68 283.46;" xml:space="preserve">
<style type="text/css">
	.st0{display:none;fill:none;stroke:#5E5E5E;stroke-width:0.5;stroke-miterlimit:10;}
	.st1{opacity:0.2;}
	.st2{fill:#848484;}
	.st3{fill:none;stroke:#FFDD2D;stroke-width:2;stroke-miterlimit:10;}
	.st4{fill:#FFDD2D;}
	.st5{fill:#21C279;}
	.st6{fill:url(#SVGID_11_);}
	.st7{fill:#FB9390;}
	.st8{fill:#0B0754;}
	.st9{fill:url(#SVGID_12_);}
	.st10{fill:#E8605D;}
	.st11{fill:#FA7167;}
	.st12{fill:#EBCE00;}
	.st13{fill:#EEAF08;}
	.st14{fill:url(#SVGID_13_);}
	.st15{fill:url(#SVGID_14_);}
	.st16{opacity:0.5;fill:url(#SVGID_15_);}
	.st17{fill:url(#SVGID_16_);}
	.st18{opacity:0.2;fill:#0B0754;}
	.st19{fill:url(#SVGID_17_);}
	.st20{fill:url(#SVGID_18_);}
	.st21{fill:#FEE65F;}
	.st22{fill:#D99B11;}
	.st23{fill:#FEC314;}
	.st24{fill:#FDE115;}
	.st25{fill:#DCA011;}
	.st26{fill:#FDDE14;}
	.st27{fill:#FEFCF7;}
	.st28{fill:#FEE55C;}
	.st29{fill:#FDE252;}
	.st30{fill:#92B5F9;}
	.st31{fill:#DDE8FE;}
	.st32{fill:#E6EDEF;}
	.st33{fill:url(#SVGID_19_);}
	.st34{fill:url(#SVGID_20_);}
	.st35{fill:#F66491;}
	.st36{fill:url(#SVGID_21_);}
	.st37{fill:#110059;}
	.st38{fill:#070911;}
	.st39{fill:url(#SVGID_22_);}
	.st40{fill:#FFFFFF;}
	.st41{fill:url(#SVGID_23_);}
	.st42{fill:url(#SVGID_24_);}
	.st43{fill:url(#SVGID_25_);}
	.st44{clip-path:url(#SVGID_27_);}
	.st45{fill:url(#SVGID_28_);}
	.st46{opacity:0.2;fill:#110059;}
	.st47{fill:#D5365E;}
	.st48{fill:#FB6392;}
	.st49{opacity:0.1;}
	.st50{fill:url(#SVGID_29_);}
	.st51{fill:url(#SVGID_30_);}
	.st52{opacity:0.2;fill:#9B9B9B;}
	.st53{fill:url(#SVGID_31_);}
	.st54{fill:#C3D6D8;}
	.st55{display:none;fill:#070911;}
	.st56{fill:none;stroke:#1D2D32;stroke-width:0.5594;stroke-miterlimit:10;}
	.st57{fill:url(#SVGID_32_);}
	.st58{opacity:0.6;fill:#AFE6FF;}
	.st59{opacity:0.5;fill:#E1FAFF;}
	.st60{fill:none;stroke:#0F1446;stroke-width:1.0413;stroke-miterlimit:10;}
	.st61{fill:url(#SVGID_33_);}
	.st62{fill:url(#SVGID_34_);}
	.st63{fill:#D6385B;}
	.st64{fill:url(#SVGID_35_);}
	.st65{fill:#FF981D;}
	.st66{fill:#0C9346;}
	.st67{fill:#29C973;}
	.st68{fill:#D9C9CA;}
	.st69{fill:url(#SVGID_36_);}
	.st70{fill:url(#SVGID_37_);}
	.st71{fill:url(#SVGID_38_);}
	.st72{fill:url(#SVGID_39_);}
	.st73{fill:url(#SVGID_40_);}
	.st74{fill:#67B375;}
	.st75{fill:url(#SVGID_41_);}
	.st76{opacity:0.3;fill:#073F1E;}
	.st77{fill:#106331;}
	.st78{opacity:0.5;fill:#EEAF08;}
	.st79{fill:#D8980B;}
	.st80{fill:#FFB96F;}
	.st81{opacity:0.3;fill:#0C9346;}
	.st82{display:none;fill:#1F3765;}
	.st83{fill:#A2CDFC;}
	.st84{fill:url(#SVGID_42_);}
	.st85{opacity:0.2;fill:#606060;}
	.st86{fill:url(#SVGID_43_);}
	.st87{fill:url(#SVGID_44_);}
	.st88{fill:url(#SVGID_45_);}
	.st89{fill:url(#SVGID_46_);}
	.st90{fill:url(#SVGID_47_);}
	.st91{fill:url(#SVGID_48_);}
	.st92{fill:url(#SVGID_49_);}
	.st93{fill:#0C3563;}
	.st94{fill:url(#SVGID_50_);}
	.st95{clip-path:url(#SVGID_52_);fill:#EEAF08;}
	.st96{clip-path:url(#SVGID_52_);fill:url(#SVGID_53_);}
	.st97{clip-path:url(#SVGID_52_);fill:#50BFA5;}
	.st98{clip-path:url(#SVGID_52_);}
	.st99{fill:url(#SVGID_54_);}
	.st100{fill:url(#SVGID_55_);}
	.st101{clip-path:url(#SVGID_52_);fill:url(#SVGID_56_);}
	.st102{clip-path:url(#SVGID_52_);fill:url(#SVGID_57_);}
	.st103{clip-path:url(#SVGID_52_);fill:url(#SVGID_58_);}
	.st104{clip-path:url(#SVGID_52_);fill:url(#SVGID_59_);}
	.st105{fill:url(#SVGID_60_);}
	.st106{fill:url(#SVGID_61_);}
	.st107{fill:url(#SVGID_62_);}
	.st108{fill:url(#SVGID_63_);}
	.st109{fill:url(#SVGID_64_);}
	.st110{fill:url(#SVGID_65_);}
	.st111{fill:url(#SVGID_66_);}
	.st112{fill:#07345A;}
	.st113{fill:url(#SVGID_67_);}
	.st114{fill:url(#SVGID_68_);}
	.st115{opacity:0.4;fill:#606060;}
	.st116{fill:url(#SVGID_69_);}
	.st117{fill:url(#SVGID_70_);}
	.st118{fill:url(#SVGID_71_);}
	.st119{fill:url(#SVGID_72_);}
	.st120{fill:url(#SVGID_73_);}
	.st121{fill:url(#SVGID_74_);}
	.st122{fill:url(#SVGID_75_);}
	.st123{fill:url(#SVGID_76_);}
	.st124{fill:url(#SVGID_77_);}
	.st125{fill:url(#SVGID_78_);}
	.st126{fill:url(#SVGID_79_);}
	.st127{fill:url(#SVGID_80_);}
	.st128{clip-path:url(#SVGID_82_);}
	.st129{fill:url(#SVGID_83_);}
	.st130{fill:#1C1D21;}
	.st131{fill:#9C6F5E;}
	.st132{fill:none;stroke:#223A66;stroke-width:2;stroke-miterlimit:10;}
	.st133{fill:#F2AF2A;}
	.st134{fill:#E87578;}
	.st135{fill:#381905;}
	.st136{fill:url(#SVGID_84_);}
	.st137{opacity:0.3;}
	.st138{fill:#606060;}
	.st139{fill:url(#SVGID_85_);}
	.st140{fill:url(#SVGID_86_);}
	.st141{fill:url(#SVGID_87_);}
	.st142{fill:url(#SVGID_88_);}
	.st143{fill:url(#SVGID_89_);}
	.st144{fill:#BBEFFF;}
	.st145{fill:url(#SVGID_90_);}
	.st146{clip-path:url(#SVGID_92_);}
	.st147{fill:url(#SVGID_93_);}
	.st148{fill:url(#SVGID_94_);}
	.st149{fill:url(#SVGID_95_);}
	.st150{fill:url(#SVGID_96_);}
	.st151{fill:url(#SVGID_97_);}
	.st152{fill:url(#SVGID_98_);}
	.st153{fill:url(#SVGID_99_);}
	.st154{fill:url(#SVGID_100_);}
	.st155{clip-path:url(#SVGID_102_);}
	.st156{opacity:0.6;}
	.st157{fill:none;}
	.st158{opacity:0.5;}
	.st159{opacity:0.54;fill:#3A3434;}
	.st160{font-family:'CooperBlack';}
	.st161{font-size:46.7589px;}
</style>
<g id="Layer_1">
</g>
<g id="Layer_2">
</g>
<g id="Layer_3">
</g>
<g id="Layer_4">
</g>
<g id="Layer_5">
</g>
<g id="Layer_6">
	<g>
		<defs>
			<rect id="SVGID_51_" x="-303.68" width="283.46" height="283.46"/>
		</defs>
		<clipPath id="SVGID_2_">
			<use xlink:href="#SVGID_51_"  style="overflow:visible;"/>
		</clipPath>
		<linearGradient id="SVGID_4_" gradientUnits="userSpaceOnUse" x1="-78.5054" y1="262.2682" x2="9.3277" y2="262.2682">
			<stop  offset="0.3488" style="stop-color:#2FB18F"/>
			<stop  offset="0.5044" style="stop-color:#2CAE8B"/>
			<stop  offset="0.6664" style="stop-color:#23A57E"/>
			<stop  offset="0.8313" style="stop-color:#159569"/>
			<stop  offset="0.9973" style="stop-color:#007F4D"/>
			<stop  offset="1" style="stop-color:#007F4C"/>
		</linearGradient>
		<path style="clip-path:url(#SVGID_2_);fill:url(#SVGID_4_);" d="M-1.51,118.54l10.27-9.94C5.55,90.62-11.32,81.97-22.42,80.79
			c-29.9-3.17-45.15,17.39-51.56,50.36c-11.71,60.19,3.03,312.92,3.03,312.92c1.1-6.71,82.32-260.51,80.24-330.24L-1.51,118.54z"/>
		<path style="clip-path:url(#SVGID_2_);fill:#50BFA5;" d="M265.6,442.75c-4.16-19.3-46.35-24.97-100.14-14.39
			c19.15-6.54,45.46-21.44,59.09-28.25l-9.32-5.93l18.72,0.87c15.31-8.96,22.96-17.77,17.96-25.73c-3.74-5.95-11.93-8.42-23.04-8.39
			l-5.85,10.47l1.21-10.32c-28.02,1.62-34.37-2.96-72.17,12.32c23.62-12.26,27.03-16.06,28.58-20.99l-12.79-5.6h14.99
			c12.12-13.03,31.34-38.82,23.37-50.71c-6.58-9.81-35.46,3.81-53.9,10.88l-7.84,17.64l1.59-15.07
			c-58.62,25.53-38.75,5.05-38.75,5.05s61.19-126.58,25.14-123.74c-14.23,1.12-29.53,9.7-44.56,23.44l-0.38,12.58l-4.47-7.98
			c-10.95,10.73-21.79,23.73-32.13,37.68c14.03-29.47,24.67-58.41,25.73-79.96l-10.71-1.3l10.57-7.35
			c-0.99-10.89-5.31-19.12-14.04-23.48c-13.4-6.68-27.47,3.43-41.32,23.5l3.42,18.12l-8.59-10.15
			c-49.59,80.81-94.93,279.78-94.93,279.78l-3.6,10.79l145.68,7.19C63.12,473.72,273.99,481.73,265.6,442.75z"/>
		<g style="clip-path:url(#SVGID_2_);">
			<linearGradient id="SVGID_6_" gradientUnits="userSpaceOnUse" x1="-276.8568" y1="301.6221" x2="36.2943" y2="301.6221">
				<stop  offset="0" style="stop-color:#213E99"/>
				<stop  offset="0.5621" style="stop-color:#223A66"/>
				<stop  offset="1" style="stop-color:#223A66"/>
			</linearGradient>
			<path style="fill:url(#SVGID_6_);" d="M35.98,272.53c0.75-1.29-0.39-2.77-2.12-2.77h-272.1c-21.33,0-38.62,14.27-38.62,31.87l0,0
				c0,17.6,17.29,31.87,38.62,31.87H33.94c1.74,0,2.88-1.5,2.12-2.79l0,0C25.28,312.28,25.31,290.87,35.98,272.53z"/>
			<linearGradient id="SVGID_8_" gradientUnits="userSpaceOnUse" x1="-173.1727" y1="301.9463" x2="34.1985" y2="301.9463">
				<stop  offset="0" style="stop-color:#F2F5F1"/>
				<stop  offset="0.5621" style="stop-color:#D0E1E7"/>
				<stop  offset="1" style="stop-color:#B6D1DF"/>
			</linearGradient>
			<path style="fill:url(#SVGID_8_);" d="M33.81,276.61h-182.56c-13.49,0-24.42,10.93-24.42,24.42v1.83
				c0,13.49,10.93,24.42,24.42,24.42H34.2C26.02,311.04,25.93,292.84,33.81,276.61z"/>
		</g>
		<linearGradient id="SVGID_10_" gradientUnits="userSpaceOnUse" x1="-299.8427" y1="236.5183" x2="12.5592" y2="236.5183">
			<stop  offset="0" style="stop-color:#213E99"/>
			<stop  offset="0.5621" style="stop-color:#223A66"/>
			<stop  offset="1" style="stop-color:#223A66"/>
		</linearGradient>
		<path style="clip-path:url(#SVGID_2_);fill:url(#SVGID_10_);" d="M-93.69,236.52L-93.69,236.52c0-16.79-12.77-30.4-28.52-30.4
			h-176.16c-0.82,0-1.49-0.71-1.48-1.59l0,0c0.01-0.86,0.67-1.56,1.48-1.56h279.45c17.38,0,31.48,15.02,31.48,33.56v0
			c0,18.53-14.09,33.56-31.48,33.56h-279.45c-0.81,0-1.47-0.7-1.48-1.56l0,0c-0.01-0.88,0.66-1.59,1.48-1.59h176.16
			C-106.46,266.92-93.69,253.31-93.69,236.52z"/>
	</g>
</g>
<g id="Layer_7">
	<linearGradient id="SVGID_11_" gradientUnits="userSpaceOnUse" x1="0.7071" y1="141.4864" x2="283.68" y2="141.4864">
		<stop  offset="0.3488" style="stop-color:#2FB18F"/>
		<stop  offset="0.5044" style="stop-color:#2CAE8B"/>
		<stop  offset="0.6664" style="stop-color:#23A57E"/>
		<stop  offset="0.8313" style="stop-color:#159569"/>
		<stop  offset="0.9973" style="stop-color:#007F4D"/>
		<stop  offset="1" style="stop-color:#007F4C"/>
	</linearGradient>
	<rect x="0.71" class="st6" width="282.97" height="282.97"/>
	<g>
		<defs>
			<rect id="SVGID_81_" x="0.71" width="282.97" height="282.97"/>
		</defs>
		<clipPath id="SVGID_12_">
			<use xlink:href="#SVGID_81_"  style="overflow:visible;"/>
		</clipPath>
		<g style="clip-path:url(#SVGID_12_);">
			<linearGradient id="SVGID_13_" gradientUnits="userSpaceOnUse" x1="51.4611" y1="185.9062" x2="538.3463" y2="185.9062">
				<stop  offset="0" style="stop-color:#8B56CD"/>
				<stop  offset="0.3488" style="stop-color:#8B56CD"/>
				<stop  offset="0.4801" style="stop-color:#8754CA"/>
				<stop  offset="0.6169" style="stop-color:#7A4FC2"/>
				<stop  offset="0.7561" style="stop-color:#6547B5"/>
				<stop  offset="0.8962" style="stop-color:#493CA3"/>
				<stop  offset="1" style="stop-color:#2E3192"/>
			</linearGradient>
			<path class="st14" d="M75.03,297.8c-26.83-29.87-31.42-81.64-10.35-116.87c8.4-14.05,20.04-25.19,31.53-36.14
				c21.05-20.06,42.55-40.44,68.05-52.31c25.78-12.01,54.16-14.62,82.03-16.23c56.04-3.23,112.24-2.97,168.26,0.79
				c31.18,2.09,64.8,6.44,87.75,30.27c15.61,16.2,24.01,39.34,29.62,62.37c5.18,21.23,8.41,43.56,5.05,65.25
				c-3.36,21.69-14.13,42.75-31.4,53.12"/>
			<g>
				<g>
					<path class="st12" d="M103.13,26.25c0,0-2.84,100.27-2.89,102.13c-0.05,1.85,147.26,8.42,150.03,6.4
						c2.77-2.03,3.33-101.55,2.95-104.28C252.85,27.77,103.24,22.63,103.13,26.25z"/>
				</g>
				<g>
					<g>
						<polygon class="st112" points="266.25,139.21 263.27,139.13 265.76,32.72 265.76,32.72 265.76,32.72 265.95,24.58 
							263.23,24.51 92.96,23.57 92.89,26.18 92.77,26.19 87.16,134.64 84.04,134.55 80.79,153.64 89.53,153.89 98.27,154.14 
							96.1,134.89 93.12,134.81 95.59,29.09 262.81,32.65 257.31,138.96 254.19,138.87 250.94,157.97 259.68,158.22 268.42,158.46 
													"/>
					</g>
				</g>
				<g>
					<path class="st130" d="M261.16,131.62c0,0-12.36-0.17-12.63-1.37c-0.27-1.2,12.74-2.64,12.74-2.64"/>
				</g>
				<g>
					<path class="st130" d="M263.63,44.52c0,0-12.36-0.17-12.63-1.37c-0.27-1.2,12.74-2.64,12.74-2.64"/>
				</g>
				<g>
					<path class="st130" d="M92.19,126.84c0,0,12.35,0.52,12.69-0.66c0.34-1.18-12.57-3.35-12.57-3.35"/>
				</g>
				<g>
					<path class="st130" d="M94.66,39.74c0,0,12.35,0.52,12.69-0.66c0.33-1.18-12.57-3.35-12.57-3.35"/>
				</g>
			</g>
			<path class="st131" d="M155.78,166.51c-21.75,0-51.21,0.43-82.21,1.83l-102.24,66.11c0,0,237.09,96,241.61,84.98
				c3.84-9.35,24.32-121.26,30.42-154.85C199.61,162.62,155.78,166.51,155.78,166.51z"/>
			<g>
			</g>
			<path class="st132" d="M204.63,85.1c0,17.45-13.4,29.41-30.84,29.41s-30.5-14.14-30.5-31.59s13.06-31.59,30.5-31.59
				S204.63,67.66,204.63,85.1z"/>
			<path class="st132" d="M197.64,82.92c0,13.65-9.39,24.72-23.04,24.72S151.2,96.43,151.2,82.78s9.76-24.58,23.41-24.58
				S197.64,69.27,197.64,82.92z"/>
			<path class="st132" d="M176.79,30.82c-0.37,16.78-1.07,34.16-2.19,52.1c-1.07,17.22-2.45,33.88-4.07,49.94"/>
			<path class="st132" d="M252.93,88.92c-26.25-2.52-53.91-4.45-82.89-5.55c-23.9-0.91-46.94-1.18-69.03-0.96"/>
		</g>
		<g style="clip-path:url(#SVGID_12_);">
			<g>
				<g>
					<path class="st135" d="M-19.49,251.94c1.81,4.51,5.86,7.84,10.35,9.7c4.49,1.85,9.41,2.38,14.26,2.57
						c10.69,0.42,21.51-0.73,31.66-4.12c4.5-1.5,9.49-4.24,10.05-8.95c0.36-3.07-1.36-5.99-3.27-8.42
						c-6.97-8.83-17.65-14.64-28.85-15.7C2.22,225.83-26.88,233.53-19.49,251.94z"/>
				</g>
				<g>
					<g>
						<g>
							<g>
								<g>
									<linearGradient id="SVGID_14_" gradientUnits="userSpaceOnUse" x1="-3.2608" y1="160.1854" x2="7.6505" y2="160.1854">
										<stop  offset="0" style="stop-color:#F2F5F1"/>
										<stop  offset="0.5621" style="stop-color:#D0E1E7"/>
										<stop  offset="1" style="stop-color:#B6D1DF"/>
									</linearGradient>
									<path class="st15" d="M-2.87,152.85c0.03,1.4-0.66,17.82-0.28,17.83c3.73,0.08,7.06,0.08,10.79,0.16
										c-0.8-0.02-1.56-6.62-1.6-7.53c-0.15-3.18,0.03-6.41,0.04-9.59c0-0.77-0.01-1.6-0.45-2.23c-0.45-0.66-1.25-0.97-2.01-1.24
										c-1.11-0.4-2.26-0.8-3.43-0.72c-1.18,0.08-2.39,0.78-2.7,1.92"/>
								</g>
							</g>
							<g class="st137">
								<g>
									<path class="st138" d="M-4.95,151.77c1.64,1.54,3.37,2.84,5.19,3.96c1.34,0.83,2.91,1.23,4.48,1.09
										c0.17-0.01,0.34-0.03,0.51-0.05c0.13-1.67,0.35-3.31,0.65-4.92l-16.37-6.25C-8.81,147.79-6.98,149.86-4.95,151.77z"/>
								</g>
							</g>
							<g>
								<g>
									<linearGradient id="SVGID_15_" gradientUnits="userSpaceOnUse" x1="11.6434" y1="140.7367" x2="16.1599" y2="140.7367">
										<stop  offset="0" style="stop-color:#F2F5F1"/>
										<stop  offset="0.5621" style="stop-color:#D0E1E7"/>
										<stop  offset="1" style="stop-color:#B6D1DF"/>
									</linearGradient>
									<path style="fill:url(#SVGID_15_);" d="M11.64,137.02c0.91,1.48,2.21,2.73,3.73,3.58c0.35,0.19,0.75,0.43,0.79,0.83
										c0.03,0.25-0.11,0.49-0.26,0.7c-0.62,0.91-1.41,1.7-2.33,2.31"/>
								</g>
							</g>
							<g>
								<g>
									<linearGradient id="SVGID_16_" gradientUnits="userSpaceOnUse" x1="-12.8137" y1="140.7857" x2="13.9886" y2="140.7857">
										<stop  offset="0" style="stop-color:#F2F5F1"/>
										<stop  offset="0.5621" style="stop-color:#D0E1E7"/>
										<stop  offset="1" style="stop-color:#B6D1DF"/>
									</linearGradient>
									<path class="st17" d="M-4.54,127.83c3.86-1.51,8.03-1.33,11.53,0.97c1.43,0.94,3.23,2.36,4.13,3.81
										c1.27,2.05,1.91,4.63,2.3,6.98c0.12,0.73,0.22,1.46,0.29,2.2c0.32,3.31,0.57,7.23-0.55,10.42
										c-0.33,0.93-0.94,1.79-1.84,2.2c-0.72,0.33-1.54,0.33-2.33,0.31c-3.99-0.1-7.12-0.75-10.79-2.29
										c-3.03-1.28-5.96-3.11-7.93-5.8c-4.13-5.64-4.52-11.75,1.19-16.43C-7.25,129.15-5.91,128.37-4.54,127.83z"/>
								</g>
							</g>
							<g>
								<g>
									<path class="st112" d="M9.17,128.99c0.1-0.2,0.19-0.42,0.27-0.64c0.71-1.92,0.4-4.22-0.92-5.79
										c-1.32-1.57-3.64-2.26-5.55-1.53c-0.8,0.31-1.29,0.99-2.06,1.37c-0.9,0.44-1.93,0.61-2.92,0.66
										c-1.62,0.07-3.26-0.14-4.86,0.15c-2.63,0.49-4.76,2.31-6.44,4.31c-1.53,1.83-2.96,3.49-3.73,5.81
										c-1.41,4.25-1.02,9.5,1.64,13.2c2.5,3.48,6.86,5.54,11.13,5.26c1.61-0.11,1.35-1.45,0.85-2.55
										c-0.94-2.09-1.71-4.29-1.23-6.6c0.74,0.91,1.22,1.99,2,2.86c0.06,0.07,0.15,0.14,0.24,0.1c0.08-0.04,0.09-0.14,0.09-0.23
										c0-1.04-0.01-1.96-0.17-2.97c-0.18-1.16-0.34-2.32-0.52-3.48c-0.05-0.31-0.09-0.65,0.07-0.91c0.19-0.32,0.61-0.43,0.87-0.7
										c0.39-0.4,0.36-1.06,0.17-1.55c-0.12-0.32-0.46-1.06-0.31-1.41c0.18-0.42,1.06-0.46,1.47-0.56
										c1.26-0.3,2.54-0.53,3.79-0.86"/>
								</g>
							</g>
						</g>
					</g>
					<g>
						<g>
							<path class="st10" d="M19.23,193.9c-0.45-6.81-1.24-13.61-3.12-20.19c-0.85-2.97-1.74-8.4-3.76-10.77
								c-2.85-3.35-8.94-1.9-12.72-2.56c-4.21-0.73-8.8,0.56-11.82,3.64c-2.72,2.76-4.09,6.62-4.53,10.47
								c-0.44,3.85-0.02,7.74,0.41,11.59c1.48,13.56,5.1,28.76,0.68,42.02c-2.13,6.4-4.63,11.16-3.57,18.28
								c4.99-4.38,9.55-10.04,16.78-10.04c5.17-0.54,10.37,0.12,15.56,0.4c4.57,0.25,9.28,0.18,13.62-1.21
								c-2.64-6.9-4.14-14.19-4.81-21.53c-0.39-4.26-2.11-8.3-2.31-12.6C19.52,198.9,19.4,196.4,19.23,193.9z"/>
						</g>
					</g>
				</g>
				<g>
					<linearGradient id="SVGID_17_" gradientUnits="userSpaceOnUse" x1="-3.5153" y1="162.9804" x2="9.6204" y2="162.9804">
						<stop  offset="0" style="stop-color:#F2F5F1"/>
						<stop  offset="0.5621" style="stop-color:#D0E1E7"/>
						<stop  offset="1" style="stop-color:#B6D1DF"/>
					</linearGradient>
					<path class="st19" d="M-2.04,164.95c1.42,1.61,3.49,2.48,5.55,3.07c1.27,0.36,2.62,0.64,3.89,0.27
						c1.27-0.37,2.37-1.58,2.2-2.88c-0.21-1.61-1.67-2.06-2.61-3.1c-0.82-0.9-1.09-2.14-1.33-3.3c-0.31-1.52-0.3-1.62-1.91-1.45
						c-2.12,0.23-4.78,0.66-6.45,2.08C-4.32,161.03-3.23,163.6-2.04,164.95z"/>
				</g>
				<g>
					<g>
						<path class="st112" d="M-7.87,163.24c-12.94,8.42-15.76,29.55-20.33,43.13c-3.08,9.16-6.16,18.31-9.24,27.47
							c-1.05,3.12-1.67,6.42-2.74,9.51c-1.06,3.07-2.44,5.81-3.02,9.07c-0.14,0.8-0.28,1.66-0.83,2.25c-0.49,0.53-1.35,1-1.14,1.69
							c0.15,0.5,0.82,0.71,0.96,1.22c0.19,0.72-0.83,1.21-0.97,1.94c-0.11,0.52,0.28,1.04,0.76,1.27c0.59,0.28,1.26,0.21,1.85,0.42
							c0.86,0.31,1.72,0.99,2.51,1.45c0.5-2.77,4.87-3.33,5.53-6.07c0.27-1.09-0.15-2.3,0.26-3.34c0.64-1.63,2.81-1.93,4.12-3.08
							c1.43-1.25,1.71-3.24,2.35-4.92c0.58-1.54,1.58-2.9,2.32-4.37c2.33-4.66,4.82-9.24,7.12-13.92
							c4.6-9.38,8.86-18.93,12.79-28.61c2.2-5.42,4.29-10.89,6.28-16.39"/>
					</g>
				</g>
			</g>
			<g>
				<g>
					<g>
						<g>
							<g>
								<g>
									<path class="st112" d="M64.32,232.73c1.16-1.03,2.35-2.03,3.57-2.98c8.35-6.55,18-11.43,27.44-15.98
										c7.16-3.45,14.75-6.25,22.66-7.37c5.66-0.79,15-2.41,18.11,3.71c2.31,4.54,0.48,10.09-4.08,12.37
										c-7.72,3.86-14.78,9.24-22.79,12.44c-7.18,2.87-12.91,9.02-20.1,12.29c-6.99,3.19-15.02,4.72-22.44,2.71
										c-3.11-0.85-6.23-2.46-7.8-5.27c-2.28-4.07,0.23-6.91,2.98-9.62C62.67,234.24,63.49,233.48,64.32,232.73z"/>
								</g>
							</g>
						</g>
					</g>
				</g>
				<g>
					<g>
						<g>
							<g>
								<g>
									<g>
										<g>
											<linearGradient id="SVGID_18_" gradientUnits="userSpaceOnUse" x1="60.905" y1="153.4592" x2="71.2872" y2="153.4592">
												<stop  offset="0" style="stop-color:#F2F5F1"/>
												<stop  offset="0.5621" style="stop-color:#D0E1E7"/>
												<stop  offset="1" style="stop-color:#B6D1DF"/>
											</linearGradient>
											<path class="st20" d="M70.56,159.45c0.26-5.1,0.39-10.2,0.73-15.29c0,0-10.22,4.26-10.38,4.32
												c0.41-0.17,1.1,3.87,1.15,4.18c0.37,2.19,0.62,4.35,0.58,6.57c-0.02,0.87,0.06,1.82,0.64,2.47
												c0.52,0.58,1.32,0.79,2.09,0.89c1.83,0.24,4.99,0.58,5.12-1.77C70.51,160.36,70.54,159.91,70.56,159.45z"/>
										</g>
									</g>
								</g>
							</g>
						</g>
					</g>
				</g>
				<g>
					<path class="st13" d="M106.46,211.47c-0.48,0.82-0.75,1.66-0.87,2.66c-0.32,2.81-1.31,6.05-2.98,8.35
						c-1.6,2.21-4,3.7-5.79,5.76c-3.32,3.82-4.21,9.15-6.52,13.66c-2.78,5.42-7.78,9.67-13.59,11.53
						c-5.8,1.86-12.34,1.32-17.76-1.47c-2.68-1.38-5.24-3.33-8.25-3.52c-1.82-0.11-3.64,0.45-5.45,0.27
						c-3.42-0.33-6.14-3.26-7.23-6.52c-1.09-3.25-0.85-6.79-0.5-10.2c0.35-3.41,0.8-6.89,0.12-10.25c-0.55-2.71-1.82-5.27-1.97-8.03
						c-0.3-5.46,3.82-10.32,4-15.78c0.11-3.33-1.26-6.53-1.59-9.84c-0.81-8.22,4.72-15.56,9.95-21.96
						c3.22-3.94,6.83-8.12,11.81-9.18c3.05-0.65,6.22,0,9.27,0.64c4.08,0.86,8.17,1.72,12.25,2.57c2.28,0.48,4.65,1,6.47,2.44
						c3.01,2.38,3.75,6.57,4.28,10.38c0.89,6.37,1.77,12.75,2.66,19.12c0.44,3.19,0.89,6.37,1.33,9.56
						c0.41,2.94,1.08,5.92,1.33,8.84c0.06,0.72,0.4,1.56,1.12,1.67c0.4,0.06,0.8-0.13,1.15-0.33c1.63-0.9,3.15-2,4.83-2.8
						c1.68-0.81,3.57-1.33,5.4-0.99c-0.78-0.15-2.53,2.07-2.93,2.61C106.79,210.94,106.61,211.2,106.46,211.47z"/>
				</g>
				<g>
					<g>
						<path class="st112" d="M106.28,244.19c-1.13,0.75-2.26,1.48-3.38,2.22c-0.91,0.6-1.85,1.21-2.92,1.48
							c-3.24,0.82-5.65-3.29-4.83-6.14c0.46-1.62,1.77-2.83,3.03-3.96c8.93-8.01,17.93-16.09,28.26-22.3
							c1.84-1.11,3.72-2.59,5.82-1.23c1.56,1.01,2.34,3.19,1.8,4.95c-0.73,2.37,2.94-1.34,1.29,0.45
							c-2.03,2.21-10.59,10.34-12.79,12.38C117.67,236.57,111.93,240.46,106.28,244.19z"/>
					</g>
				</g>
				<g class="st137">
					<path class="st135" d="M94.81,242.81c-0.06,0-0.12-0.03-0.15-0.08c-0.06-0.08-0.04-0.2,0.05-0.26l34.8-24.46
						c0.08-0.06,0.2-0.04,0.26,0.05c0.06,0.08,0.04,0.2-0.05,0.26l-34.8,24.46C94.89,242.8,94.85,242.81,94.81,242.81z"/>
				</g>
				<g class="st137">
					<path class="st135" d="M77.34,196.12c0.36,0.71,0.73,1.45,1.01,2.21c0.89,2.35,1.04,4.9,1.18,7.36
						c0.06,1.07,0.12,2.17,0.25,3.24c0.29,2.53,1.31,7,4.88,8.71c8.17-2.36,14.95-5.34,20.72-9.09c0.09-0.06,0.2-0.03,0.26,0.05
						c0.06,0.09,0.03,0.2-0.05,0.26c-5.82,3.79-12.65,6.78-20.89,9.16c-0.02,0-0.03,0.01-0.05,0.01c-0.03,0-0.05-0.01-0.08-0.02
						c-3.79-1.76-4.86-6.42-5.16-9.03c-0.12-1.08-0.19-2.19-0.25-3.26c-0.14-2.44-0.28-4.96-1.15-7.25c-0.28-0.74-0.65-1.47-1-2.18
						c-0.49-0.98-0.99-1.99-1.3-3.07c-0.64-2.26-0.37-4.65-0.1-6.95c0.06-0.56,0.13-1.12,0.18-1.67c0.34-3.69-0.27-6.3-1.86-7.98
						c-0.07-0.07-0.07-0.19,0.01-0.26c0.07-0.07,0.19-0.07,0.26,0.01c1.67,1.76,2.31,4.46,1.96,8.27c-0.05,0.56-0.12,1.12-0.18,1.68
						"/>
				</g>
				<g>
					<g>
						<g>
							<g>
								<g>
									<g>
										<linearGradient id="SVGID_19_" gradientUnits="userSpaceOnUse" x1="53.9463" y1="149.0505" x2="77.5374" y2="149.0505">
											<stop  offset="0" style="stop-color:#F2F5F1"/>
											<stop  offset="0.5621" style="stop-color:#D0E1E7"/>
											<stop  offset="1" style="stop-color:#B6D1DF"/>
										</linearGradient>
										<path class="st33" d="M53.95,141.25c0.95,1.9,1.33,4.03,1.87,6.09c0.53,2.06,1.26,4.15,2.74,5.68
											c1,1.03,2.27,1.74,3.53,2.44c1.07,0.59,2.18,1.2,3.39,1.35c2.51,0.32,4.81-1.29,6.82-2.82c1.45-1.11,2.94-2.25,3.89-3.82
											c1.46-2.41,1.41-5.41,1.32-8.23"/>
									</g>
								</g>
							</g>
						</g>
						<g>
							<g>
								<g>
									<g>
										<g>
											<path class="st134" d="M55.05,139.18c-0.48-0.85-1.28-1.66-2.25-1.6c-0.72,0.04-1.35,0.58-1.62,1.25
												c-0.27,0.67-0.2,1.44,0.06,2.11c0.26,0.67,0.7,1.25,1.19,1.79c0.34,0.37,0.7,0.73,1.15,0.95c0.45,0.22,0.99,0.3,1.45,0.1
												C56.7,143.04,55.66,140.27,55.05,139.18z"/>
										</g>
									</g>
								</g>
							</g>
							<g>
								<g>
									<g>
										<g>
											<path class="st40" d="M57.25,152.14c-0.07,0-0.13-0.03-0.18-0.09c-0.25-0.38-6.06-9.25-5.46-14.21
												c0.01-0.12,0.12-0.2,0.23-0.18c0.12,0.01,0.2,0.12,0.18,0.23c-0.58,4.81,5.34,13.84,5.4,13.93
												c0.06,0.1,0.04,0.23-0.06,0.29C57.33,152.13,57.29,152.14,57.25,152.14z"/>
										</g>
									</g>
								</g>
							</g>
						</g>
						<g>
							<g>
								<g>
									<path class="st63" d="M79.94,129.44c-1.73-5.88-8.6-9.82-14.56-9.81c-3.06,0-6.01,1.13-8.69,2.59
										c-4.43,2.41-8.44,6.47-8.04,11.84c0.41,5.5,2.35,11.29,4.87,16.17c0.95,1.84,2.07,3.56,3.18,5.3
										c0.23,0.37,0.46,0.76,0.7,1.15c-0.86,0.94-2.02,1.71-3.09,2.42c-4.08,2.68-9.13,6.82-9.74,12
										c-0.27,2.28,0.29,4.64,1.54,6.56c1.35,2.08,3.44,3.58,4.88,5.59c1.52,2.12,2.26,4.79,2.05,7.4
										c-0.05,0.58-0.03,1.34,0.53,1.51c0.44,0.14,0.86-0.25,1.17-0.6c3.56-4.07,7.11-8.63,7.57-14.01
										c0.31-3.68-0.97-7.54,0.08-11.16c0.99-3.41,1.03-5.8-0.11-9.09c-0.07-0.2-0.14-0.42-0.1-0.63c0.05-0.28,0.28-0.49,0.5-0.67
										c3.99-3.43,8.25-6.05,11.79-10.06c3.32-3.76,5.98-8.25,5.98-13.4C80.4,131.48,80.23,130.44,79.94,129.44z"/>
								</g>
							</g>
						</g>
					</g>
				</g>
				<g>
					<path class="st135" d="M93.75,257.61c2.68-1.86,4.45-4.66,5.87-7.54c1.49-3.02,2.4-5.45-1.04-7.47
						c-0.79-0.47-1.68-0.92-2.59-0.79c-0.73,0.1-1.36,0.57-1.94,1.04c-1.94,1.57-3.62,3.21-5.67,4.65
						c-2.24,1.58-4.48,3.16-6.73,4.74c-1.25,0.88-2.57,1.84-3.17,3.24c-0.65,1.5-0.26,3.36,0.84,4.55c1.41,1.53,3.62,1.22,5.45,0.82
						C87.91,260.16,91.12,259.43,93.75,257.61z"/>
				</g>
			</g>
			<g>
				<g>
					<path class="st144" d="M24.46,259.37c2.52,2.23,2.88,6,0.8,8.63c-8.92,11.29-22.07,23.63-34.6,19.26
						c-8.4-2.93-15.91-8.62-21.46-15.68c-2.07-2.63-1.63-6.47,0.95-8.6c7.68-6.36,17.27-10.42,27.19-11.44
						C6.48,250.6,17.47,253.19,24.46,259.37z"/>
				</g>
				<g>
					<path class="st112" d="M75.46,255.24c4.96,4.35,15.65,10.57,9.03,17.48c-3.74,3.9-11.19,5.31-16.2,6.76
						c-8.84,2.56-17.68,5.11-26.52,7.67c-4.16,1.2-8.48,2.42-12.76,1.8c-8.23-1.2-13.91-8.62-18.66-15.44
						c-4.08-5.85-4.67-8.74,0.91-12.02c10.19-6,22.41-8.89,33.58-12.57c3.92-1.29,7.94-2.59,12.07-2.51
						C63.9,246.53,70.19,250.62,75.46,255.24z"/>
				</g>
				<g>
					<g>
						<linearGradient id="SVGID_20_" gradientUnits="userSpaceOnUse" x1="-11.229" y1="236.8946" x2="53.235" y2="236.8946">
							<stop  offset="0" style="stop-color:#F2F5F1"/>
							<stop  offset="0.5621" style="stop-color:#D0E1E7"/>
							<stop  offset="1" style="stop-color:#B6D1DF"/>
						</linearGradient>
						<path class="st34" d="M7.61,211.22c14.67,0.25,29.62,4.06,41.85,11.99c2.85,1.85,4.34,5.24,3.58,8.56
							c-2.04,8.81-5.3,17.69-8.91,26c-1.29,2.98-4.27,4.9-7.52,4.81c-15-0.41-29.9-4.07-43.39-10.64c-3.2-1.56-4.97-5.09-4.31-8.59
							c1.84-9.79,6.32-20.6,11.91-28.63C2.36,212.49,4.9,211.17,7.61,211.22z"/>
					</g>
					<g>
						<defs>
							<path id="SVGID_91_" d="M7.61,211.22c14.67,0.25,29.62,4.06,41.85,11.99c2.85,1.85,4.34,5.24,3.58,8.56
								c-2.04,8.81-5.3,17.69-8.91,26c-1.29,2.98-4.27,4.9-7.52,4.81c-15-0.41-29.9-4.07-43.39-10.64c-3.2-1.56-4.97-5.09-4.31-8.59
								c1.84-9.79,6.32-20.6,11.91-28.63C2.36,212.49,4.9,211.17,7.61,211.22z"/>
						</defs>
						<clipPath id="SVGID_21_">
							<use xlink:href="#SVGID_91_"  style="overflow:visible;"/>
						</clipPath>
						<g style="clip-path:url(#SVGID_21_);">
							<g>
								<path class="st112" d="M-3.43,262.21l-1.47-0.26c4.25-23.72,14.55-46.12,29.79-64.79l1.16,0.95
									C10.97,216.57,0.77,238.74-3.43,262.21z"/>
							</g>
							<g>
								<path class="st112" d="M3.78,269.56l-1.44-0.4c7.01-25.2,18.26-48.8,33.42-70.11l1.22,0.87
									C21.92,221.09,10.75,244.52,3.78,269.56z"/>
							</g>
							<g>
								
									<rect x="-7.53" y="234.85" transform="matrix(0.4472 -0.8944 0.8944 0.4472 -195.7519 154.4788)" class="st112" width="69.25" height="1.49"/>
							</g>
							<g>
								<path class="st112" d="M23.57,270.48l-1.28-0.76c11.44-19.27,20.28-40,26.26-61.6l1.44,0.4
									C43.97,230.24,35.08,251.09,23.57,270.48z"/>
							</g>
							<g>
								<path class="st112" d="M35.2,268.63l-1.32-0.7c9.02-16.98,15.51-35.15,19.29-54l1.47,0.29
									C50.82,233.22,44.28,251.52,35.2,268.63z"/>
							</g>
							<g>
								<path class="st112" d="M-10.49,260.57l-1.48-0.21c3.34-23.91,12.54-46.91,26.63-66.52l1.21,0.87
									C1.93,214.12-7.18,236.9-10.49,260.57z"/>
							</g>
						</g>
					</g>
				</g>
			</g>
			<g>
				<g>
					<g>
						<g>
							<g>
								<g>
									<linearGradient id="SVGID_22_" gradientUnits="userSpaceOnUse" x1="130.2243" y1="204.3697" x2="155.7102" y2="204.3697">
										<stop  offset="0" style="stop-color:#F2F5F1"/>
										<stop  offset="0.5621" style="stop-color:#D0E1E7"/>
										<stop  offset="1" style="stop-color:#B6D1DF"/>
									</linearGradient>
									<path class="st39" d="M135.11,204.13c0.4-1.05,0.71-2.09,0.8-3.08c0.56-6.08-0.97-12.71-0.99-18.86
										c-0.04-8.27,0.46-17.17,6.43-23.46c2.89-3.05,11.08-6.39,13.77-1.11c2.17,4.27-2.28,12.36-3.74,16.28
										c-2.84,7.66-4.73,15.91-5.42,24.02c-0.74,8.66-1.72,17.35-4.09,25.74c-1.19,4.22-3.36,8.82-3.54,13.24
										c-0.18,4.41-0.17,8.92-0.34,13.37c-0.05,1.35-0.29,2.99-1.54,3.51c-1.03,0.43-2.25-0.21-2.85-1.15
										c-0.6-0.94-0.73-2.1-0.84-3.21c-0.49-4.86-0.98-9.74-1.59-14.57c-0.63-5-1.26-10.06-0.77-15.08
										c0.32-3.28,1.12-6.49,2.15-9.61C133.17,208.27,134.33,206.18,135.11,204.13z"/>
								</g>
							</g>
						</g>
						<g>
							<g>
								<g>
									<linearGradient id="SVGID_23_" gradientUnits="userSpaceOnUse" x1="187.7008" y1="205.1399" x2="212.3597" y2="205.1399">
										<stop  offset="0" style="stop-color:#F2F5F1"/>
										<stop  offset="0.5621" style="stop-color:#D0E1E7"/>
										<stop  offset="1" style="stop-color:#B6D1DF"/>
									</linearGradient>
									<path class="st41" d="M207.65,202.72c-0.4-1.05-0.71-2.09-0.8-3.08c-0.61-6.56,1.45-13.03,0.84-19.54
										c-0.6-6.5-2.87-12.84-6.58-18.22c-1.62-2.35-3.62-4.6-6.29-5.61c-4.98-1.88-7.81,0.97-6.98,5.65
										c0.65,3.66,2.23,7.08,3.53,10.57c2.84,7.66,4.73,15.91,5.42,24.02c0.74,8.66,1.72,17.35,4.09,25.74
										c2.7,9.59,3.87,18.21,4.61,28.13c0.13,1.7,0.58,3.81,2.24,4.18c1.16,0.26,2.34-0.58,2.87-1.64
										c0.53-1.06,0.56-2.3,0.58-3.49c0.17-10.41,1.17-20.7,1.17-31.07c-0.32-3.28-1.13-6.49-2.15-9.61
										C209.59,206.86,208.43,204.78,207.65,202.72z"/>
								</g>
							</g>
						</g>
						<g>
							<g>
								<g>
									<g>
										<g>
											<g>
												<g>
													<path class="st112" d="M198.52,230.66c-1.06-2.06-2.63-3.92-4.69-4.97c-2.3-1.18-4.99-1.25-7.58-1.31
														c-4.71-0.1-9.93,0.03-13.58,2.79c-3.66-2.75-8.88-2.88-13.58-2.79c-2.59,0.05-5.27,0.13-7.58,1.31
														c-2.06,1.05-3.63,2.91-4.69,4.97c-2.28,4.45-3.14,10.29-2.48,15.23c0.49,3.62,2.32,7.26,5.53,9
														c5.16,2.79,11.44-0.11,17.31-0.13c6.94-0.03,13.53,4.07,20.44,3.41c4.28-0.41,8.34-2.76,10.82-6.27
														C202.7,245.87,201.73,236.91,198.52,230.66z"/>
												</g>
											</g>
										</g>
									</g>
								</g>
							</g>
						</g>
						<g>
							<g>
								<g>
									<g>
										<g>
											<g>
												<g>
													
														<linearGradient id="SVGID_24_" gradientUnits="userSpaceOnUse" x1="166.1025" y1="140.8537" x2="176.4847" y2="140.8537">
														<stop  offset="0" style="stop-color:#F2F5F1"/>
														<stop  offset="0.5621" style="stop-color:#D0E1E7"/>
														<stop  offset="1" style="stop-color:#B6D1DF"/>
													</linearGradient>
													<path class="st42" d="M175.76,146.84c0.26-5.1,0.39-10.2,0.73-15.29c0,0-10.22,4.26-10.38,4.32
														c0.41-0.17,1.1,3.87,1.15,4.18c0.37,2.19,0.62,4.35,0.58,6.57c-0.02,0.87,0.06,1.82,0.64,2.47
														c0.52,0.58,1.32,0.79,2.09,0.89c1.83,0.24,4.99,0.58,5.12-1.77C175.71,147.76,175.73,147.3,175.76,146.84z"/>
												</g>
											</g>
										</g>
									</g>
								</g>
							</g>
						</g>
						<g>
							<g>
								<g>
									<g>
										<linearGradient id="SVGID_25_" gradientUnits="userSpaceOnUse" x1="159.498" y1="129.5982" x2="182.5262" y2="129.5982">
											<stop  offset="0" style="stop-color:#F2F5F1"/>
											<stop  offset="0.5621" style="stop-color:#D0E1E7"/>
											<stop  offset="1" style="stop-color:#B6D1DF"/>
										</linearGradient>
										<path class="st43" d="M159.5,126.69c0.95,1.9,1.33,4.03,1.87,6.08c0.53,2.06,1.26,4.15,2.74,5.68
											c1,1.03,2.27,1.74,3.53,2.44c1.07,0.59,2.18,1.2,3.39,1.35c2.51,0.32,4.81-1.29,6.82-2.82c1.09-0.83,2.87-1.82,3.63-2.99
											c0.99-1.52,0.91-4.11,1-5.86c0.26-4.61-0.32-9.26-1.71-13.66"/>
									</g>
								</g>
							</g>
						</g>
						<g>
							<g>
								<linearGradient id="SVGID_27_" gradientUnits="userSpaceOnUse" x1="132.2681" y1="192.1925" x2="209.1924" y2="192.1925">
									<stop  offset="0.3488" style="stop-color:#2FB18F"/>
									<stop  offset="0.5044" style="stop-color:#2CAE8B"/>
									<stop  offset="0.6664" style="stop-color:#23A57E"/>
									<stop  offset="0.8313" style="stop-color:#159569"/>
									<stop  offset="0.9973" style="stop-color:#007F4D"/>
									<stop  offset="1" style="stop-color:#007F4C"/>
								</linearGradient>
								<path style="fill:url(#SVGID_27_);" d="M194.41,173.25c3.56,0.35,7.17,0.2,10.7-0.44c4.39-0.79,4.84-1.18,3.23-5.34
									c-2.21-5.69-5.84-10.83-10.49-14.78c-13.28-11.27-33.25-10.75-48.61-4.09c-5.73,2.49-11.01,6.54-13.74,12.16
									c-1.06,2.19-4.35,10.6-2.83,12.84c1.6,2.36,10.66,1.8,13.16,1.66c0.41,7.23,0.43,14.47-0.2,21.97
									c-0.4,4.69-1.11,9.33-1.78,13.98c-0.29,2.01-1.84,6.68-0.77,8.26c0.59,0.88,1.83,1.4,1.92,2.45
									c0.07,0.71-0.44,1.33-0.85,1.92c-1.35,1.95-2.96,7.31-1.17,9.24c0.85,0.91,2.04,1.41,3.2,1.87
									c4.63,1.86,9.5,3.76,14.46,3.25c2.15-0.22,4.29-0.89,6.44-0.62c2.53,0.32,4.72,1.92,7.19,2.57c3.21,0.86,6.6,0.07,9.82-0.71
									c4.03-0.98,8.07-1.96,12.1-2.93c3.71-0.9,7.51-3.25,5.36-7.64c-0.24-0.49-0.59-0.92-0.95-1.35
									c-0.61-0.73-1.25-1.45-1.38-2.37c-0.16-1.17,0.56-2.27,0.77-3.43c0.44-2.42-1.31-4.61-2.38-6.83
									c-1.64-3.4-1.72-7.26-2.04-10.95c-0.15-1.74-0.69-3.56-0.71-5.29c-0.02-1.55,0.06-3.03-0.1-4.6
									c-0.74-7.19-1.2-13.99-0.8-20.86C194.12,173.21,194.26,173.24,194.41,173.25z"/>
							</g>
						</g>
					</g>
				</g>
				<g>
					<g>
						<linearGradient id="SVGID_28_" gradientUnits="userSpaceOnUse" x1="111.9171" y1="252.0702" x2="137.4032" y2="252.0702">
							<stop  offset="0" style="stop-color:#F2F5F1"/>
							<stop  offset="0.5621" style="stop-color:#D0E1E7"/>
							<stop  offset="1" style="stop-color:#B6D1DF"/>
						</linearGradient>
						<path class="st45" d="M125.29,248.53c-1.81-0.01-3.57,0.53-5.27,1.13c-2.42,0.84-4.78,1.96-7.23,2.71
							c-0.32,0.1-1.14,0.42-0.78,0.9c0.1,0.13,0.26,0.19,0.42,0.21c0.16,0.02,0.32-0.01,0.48-0.02c0.1-0.01,0.22,0.01,0.26,0.1
							c0.04,0.11-0.09,0.2-0.17,0.29c-0.11,0.11-0.16,0.28-0.13,0.44c0.06,0.31,0.44,0.49,0.71,0.55c0.46,0.1,1.14-0.29,1.49,0.03
							c0.17,0.15,0.28,0.37,0.45,0.51c0.28,0.23,0.67,0.25,1.04,0.25c0.99-0.02,1.92-0.26,2.89-0.38c0.86-0.11,1.74-0.2,2.61-0.31
							c2.07-0.26,4.17-0.32,6.25-0.17c1.81,0.12,3.65,0.39,5.41-0.07c1.38-0.36,3.14-0.41,3.6-1.82c0.42-1.27-0.47-4.02-2.01-3.99
							c-1.39,0.03-2.4,0.86-3.93,0.67C129.32,249.29,127.36,248.54,125.29,248.53z"/>
					</g>
				</g>
				<g>
					<g>
						<linearGradient id="SVGID_29_" gradientUnits="userSpaceOnUse" x1="205.7832" y1="252.5099" x2="231.2693" y2="252.5099">
							<stop  offset="0" style="stop-color:#F2F5F1"/>
							<stop  offset="0.5621" style="stop-color:#D0E1E7"/>
							<stop  offset="1" style="stop-color:#B6D1DF"/>
						</linearGradient>
						<path class="st50" d="M217.9,248.97c1.81-0.01,3.57,0.53,5.27,1.12c2.42,0.84,4.78,1.96,7.23,2.71
							c0.32,0.1,1.14,0.42,0.78,0.9c-0.1,0.13-0.26,0.19-0.42,0.21c-0.16,0.02-0.32-0.01-0.48-0.02c-0.1-0.01-0.22,0.01-0.26,0.1
							c-0.04,0.11,0.09,0.2,0.17,0.29c0.11,0.11,0.16,0.28,0.13,0.44c-0.06,0.31-0.44,0.49-0.71,0.55c-0.46,0.1-1.14-0.29-1.49,0.03
							c-0.17,0.15-0.28,0.37-0.45,0.51c-0.28,0.23-0.67,0.25-1.04,0.25c-0.99-0.02-1.92-0.26-2.89-0.38
							c-0.86-0.11-1.74-0.2-2.61-0.31c-2.07-0.26-4.17-0.32-6.25-0.17c-1.81,0.12-3.65,0.39-5.41-0.07
							c-1.38-0.36-3.14-0.41-3.6-1.82c-0.42-1.27,0.47-4.02,2.01-3.99c1.39,0.03,2.4,0.86,3.93,0.67
							C213.86,249.73,215.82,248.98,217.9,248.97z"/>
					</g>
				</g>
				<g>
					<g>
						<path class="st112" d="M183.58,118.52c0.1-3.22-0.61-6.47-2.15-9.3c-1.43-2.63-4.18-5.13-7.08-4.37
							c-2.01,0.53-3.32,2.43-5.11,3.49c-2.4,1.42-5.41,1.19-8.1,1.92c-3.2,0.87-5.97,3.21-7.36,6.22c-3.23,7,1.9,17.09,6.85,22.09
							c2.22,2.24,5.25,3.88,8.39,3.7c2.52-0.14,4.8-1.41,6.54-3.2c1.98-2.02,1.37-5.16,2.82-7.71c0.68-1.19,1.55-2.25,2.3-3.4
							C182.51,125.17,183.48,121.86,183.58,118.52z"/>
					</g>
				</g>
			</g>
			<g>
				<path class="st35" d="M131.98,296.35c14.64,1.48,29.1-5.53,39.91-15.51c4.08-3.77,7.92-8.3,8.76-13.8
					c0.96-6.33-2.24-12.47-5.34-18.08c-1.78-3.22-3.81-6.67-7.23-8.01c-2.55-1.01-5.42-0.64-8.12-0.16
					c-18.48,3.28-37.95,11.13-52.32,23.47C92.8,277.01,119.14,295.05,131.98,296.35z"/>
			</g>
			<g>
				<g>
					<linearGradient id="SVGID_30_" gradientUnits="userSpaceOnUse" x1="162.321" y1="277.488" x2="228.9698" y2="277.488">
						<stop  offset="0" style="stop-color:#F2F5F1"/>
						<stop  offset="0.5621" style="stop-color:#D0E1E7"/>
						<stop  offset="1" style="stop-color:#B6D1DF"/>
					</linearGradient>
					<path class="st51" d="M201.4,306.15c-14.04-4.24-27.39-11.97-37.01-22.93c-2.24-2.56-2.75-6.23-1.11-9.21
						c4.36-7.92,9.92-15.58,15.65-22.59c2.06-2.51,5.44-3.55,8.54-2.58c14.32,4.48,27.66,12.06,38.85,22.06
						c2.65,2.37,3.39,6.25,1.81,9.44c-4.44,8.91-11.69,18.1-19.26,24.3C206.79,306.35,203.99,306.94,201.4,306.15z"/>
				</g>
				<g>
					<defs>
						<path id="SVGID_101_" d="M201.4,306.15c-14.04-4.24-27.39-11.97-37.01-22.93c-2.24-2.56-2.75-6.23-1.11-9.21
							c4.36-7.92,9.92-15.58,15.65-22.59c2.06-2.51,5.44-3.55,8.54-2.58c14.32,4.48,27.66,12.06,38.85,22.06
							c2.65,2.37,3.39,6.25,1.81,9.44c-4.44,8.91-11.69,18.1-19.26,24.3C206.79,306.35,203.99,306.94,201.4,306.15z"/>
					</defs>
					<clipPath id="SVGID_31_">
						<use xlink:href="#SVGID_101_"  style="overflow:visible;"/>
					</clipPath>
					<g style="clip-path:url(#SVGID_31_);">
						<g>
							<path class="st112" d="M180.95,314.97l-0.86-1.23c19.54-13.66,35.38-32.21,45.82-53.65l1.34,0.65
								C216.7,282.41,200.69,301.16,180.95,314.97z"/>
						</g>
						<g>
							<path class="st112" d="M170.99,310.2l-0.94-1.16c20.26-16.28,37.39-35.78,50.91-57.97l1.28,0.78
								C208.64,274.18,191.39,293.82,170.99,310.2z"/>
						</g>
						<g>
							
								<rect x="154.66" y="276.63" transform="matrix(0.6742 -0.7386 0.7386 0.6742 -143.1918 230.1909)" class="st112" width="69.25" height="1.49"/>
						</g>
						<g>
							<path class="st112" d="M161.17,297.99l-1.28-0.78c11.71-19.27,25.94-36.91,42.29-52.43l1.03,1.08
								C186.95,261.3,172.81,278.83,161.17,297.99z"/>
						</g>
						<g>
							<path class="st112" d="M158.3,291.13l-1.33-0.68c8.84-17.23,20.12-33.07,33.52-47.06l1.08,1.03
								C178.27,258.31,167.08,274.03,158.3,291.13z"/>
						</g>
						<g>
							<path class="st112" d="M189.88,320.95l-0.93-1.17c18.7-14.88,33.67-34.31,43.3-56.18l1.37,0.6
								C223.9,286.3,208.77,305.92,189.88,320.95z"/>
						</g>
					</g>
				</g>
			</g>
			<g class="st156">
				<path class="st157" d="M64.83,269.09c0.11-0.53,0.44-1.11,0.92-1.68c-1.48,0.66-2.88,1.29-4.1,1.88
					c-0.68,0.32-1.36,0.64-2.04,0.96c0.78,0.14,1.52,0.32,2.21,0.55c2.36,0.78,4.14,2.08,5.28,3.74c0.96,0.33,1.88,0.71,2.74,1.13
					c-1.26-1.29-2.52-2.58-3.78-3.87C65.33,271.07,64.59,270.27,64.83,269.09z"/>
				<path class="st157" d="M113.47,284.66c-2.48,3.7-3.08,7.56-4.43,11.08c-0.47,1.21-0.99,2.44-1.54,3.67
					c0.08-0.06,0.16-0.12,0.24-0.18c1.12-0.74,2.67-1.17,3.4-2.05c0.5-0.6,0.36-1.12,0.31-1.61c-0.18-1.63,1.44-6.12,4.39-7.73
					c1.03-0.57,2.12-0.94,3.19-1.25c1-2.73,2.79-5.71,5.03-8.45c-1.66-0.54-3.29-1.13-4.86-1.77
					C117.28,279.14,115.31,281.92,113.47,284.66z"/>
			</g>
			<g class="st158">
				<path class="st157" d="M62.15,156.67c0,0.01,0,0.02,0,0.03c0.13,0,0.27,0,0.4,0c-0.01-0.19-0.02-0.39-0.04-0.58
					C62.35,156.27,62.19,156.45,62.15,156.67z"/>
				<path class="st159" d="M159.55,315.84c0.69-0.84,1.63-1.71,2.66-2.58c2.02-1.72,4.43-3.47,6.19-5.04
					c2.91-2.62,5.65-5.3,7.94-8.05c4.48-6.22,8.42-12.42,12.54-18.63c8.02-2.78,15.77-4.41,24.13-9
					c6.62-3.63,11.33-8.38,15.77-14.51c0.47-0.64,0.94-1.3,1.19-2.06c0.32-0.97,0.16-1.76-0.35-2.41c-0.21-0.27-0.49-0.52-0.82-0.74
					c-1.17-0.8-2.75-0.91-4.12-0.93c-4.29-0.05-8.38,0.48-12.65,0.88c-0.81,0.08-1.74,0.11-2.3-0.48c-0.55-0.58-0.48-1.49-0.38-2.28
					c1.28-10.64,0.55-21.33-0.81-31.91c-0.36-2.82-0.87-5.63-1.18-8.45c-0.2-1.81,0.14-3.54,0.04-5.35
					c-0.31-5.41-0.17-10.83-0.47-16.25c-0.29-5.23-1.53-10.35-2.76-15.44c-0.92-3.8-1.88-7.7-4.08-10.93
					c-2.11-3.1-5.2-5.38-8.32-7.45c-6.07-4.02-12.5-7.51-19.18-10.4c4.38-5.76,6.34-12.95,8.2-19.94c0.93-3.51,1.88-7.15,1.34-10.75
					c-0.47-3.09-2.68-7.07-5.98-7.91c-3.12-0.8-4.33,1.62-6.87,3.13c-2.4,1.42-5.41,1.18-8.1,1.92
					c-10.77,2.92-4.24,21.14,1.75,25.83c1.82,1.43,4.08,2.79,4.49,5.07c0.38,2.13-1.14,4.21-3.02,5.29
					c-1.87,1.08-4.07,1.42-6.16,1.97c-12.68,3.34-22.37,15.77-22.5,28.88c-0.06,5.98,1.65,11.85,1.92,17.83
					c0.45,10.12-4.07,15.08-12.86,18.62c-7.47,3.01-15.61,4.32-23.65,3.82c-1.38-0.09-2.87-0.28-3.85-1.26
					c-0.82-0.82-1.09-2.01-1.33-3.14c-2.81-13.1-5.62-26.19-8.43-39.29c-0.48-2.25-0.99-4.55-2.24-6.48
					c-4.24-6.54-14.72-5.93-19.65-11.96c4.16-2.94,8.7-6.49,9.27-11.56c0.27-2.44-0.45-4.88-0.37-7.33c0.07-2.2,0.77-4.33,1.23-6.48
					c0.46-2.15,0.67-4.48-0.21-6.5c-1.5-3.46-6.83-3.94-10.15-3.93c-3.06,0-6.01,1.13-8.69,2.59c-4.43,2.41-8.44,6.47-8.04,11.84
					c0.41,5.5,2.35,11.29,4.87,16.17c0.95,1.84,2.07,3.56,3.18,5.3c0.23,0.37,0.46,0.76,0.7,1.15c-0.86,0.94-2.02,1.71-3.09,2.42
					c-3.89,2.56-8.67,6.45-9.63,11.31c-3.96,5.33-7.23,11.24-6.59,17.69c0.33,3.31,1.7,6.51,1.59,9.84c-0.18,5.46-4.3,10.32-4,15.78
					c0.15,2.76,1.42,5.32,1.97,8.03c0.68,3.36,0.23,6.84-0.12,10.25c-0.15,1.44-0.27,2.9-0.28,4.35c-3.74-3.04-8-5.45-12.54-7.07
					c-1.4-4.98-2.29-10.11-2.76-15.26c-0.39-4.26-2.11-8.3-2.31-12.6c-0.1-2.21-0.21-4.42-0.35-6.63c-1.65-2.84-3.36-5.64-5.06-8.4
					c-2.34-3.8-4.75-7.56-7.28-11.24c-0.78-1.13-1.5-2.49-2.43-3.5c-0.76-0.83-1.62-1.4-2.23-2.4c-1.12-1.85-1.5-4.17-0.87-6.26
					c0.56-1.85,1.79-3.42,3-4.93c0.87-1.1,1.79-2.23,3.05-2.85c0.92-0.45,1.98-0.59,2.9-1.05c0.98-0.49,1.77-1.34,2.18-2.35
					c-1.82,0.44-3.68,0.67-5.55,0.68c-0.68,0-1.4-0.03-1.95-0.42c-0.63-0.44-0.91-1.25-0.9-2.02c0.03-2.13,0.99-4.69,2.13-6.46
					c0.55-0.85,1.23-1.76,1.07-2.75c-0.16-0.97-1.06-1.62-1.89-2.15c-1.64-1.06-3.29-2.12-4.93-3.18c-0.79-0.51-1.6-1.04-2.15-1.81
					c-0.96-1.36-0.91-3.2-0.56-4.83c0.24-1.13,0.61-2.23,0.81-3.37c0.14-0.82-0.02-1.67,0.21-2.46c-0.28,0-0.56,0.04-0.84,0.05
					c-1.62,0.07-3.26-0.14-4.86,0.15c-2.63,0.49-4.76,2.31-6.44,4.31c-1.53,1.83-2.96,3.49-3.73,5.81c-1.42,4.25-1.02,9.5,1.64,13.2
					c0.89,1.24,2.03,2.3,3.3,3.14c-0.08,0.03-0.16,0.06-0.24,0.09c-4.36,1.63-8.84,3.48-12.01,6.89s-4.67,8.83-2.28,12.83
					c2.13,3.57,9.11,4.74,9.31,9.12c0.07,1.53-0.5,3-1.06,4.42c-6.73,16.83-13.3,33.69-19.07,50.83c-1.05,3.12-1.67,6.42-2.74,9.51
					c-1.06,3.07-2.44,5.81-3.02,9.07c-0.14,0.8-0.28,1.66-0.83,2.25c-0.49,0.53-1.35,1-1.14,1.69c0.15,0.5,0.82,0.71,0.96,1.22
					c0.19,0.72-0.83,1.21-0.97,1.94c-0.04,0.18,0,0.36,0.07,0.53c-0.27,0.03-0.54,0.04-0.84,0c-2.04-0.26-4.01-1-6.08-1.02
					c-1.81-0.01-3.57,0.53-5.27,1.13c-2.42,0.84-4.78,1.96-7.23,2.71c-0.32,0.1-1.14,0.42-0.78,0.9c0.1,0.13,0.26,0.19,0.42,0.21
					c0.16,0.02,0.32-0.01,0.48-0.02c0.1-0.01,0.22,0.01,0.26,0.1c0.04,0.11-0.09,0.2-0.17,0.29c-0.11,0.11-0.16,0.28-0.13,0.44
					c0.06,0.31,0.44,0.49,0.71,0.55c0.46,0.1,1.14-0.29,1.49,0.03c0.17,0.15,0.28,0.37,0.46,0.52c-10.7,1.54-20.26,4.8-20.66,11.97
					c-0.21,3.81,0.69,6.98,5.13,7.18c13.63,0.61,12.55,3.16,2.1,10.81c-8.07,5.91-16.15,11.82-24.22,17.74
					c15.93,1.23,35.64,2.22,57.76,2.98c6.08-4.06,12.51-7.59,19.2-10.51c7.31-3.18,13.69-2.11,21.09-4.21
					c-3.96,4.64-3.9,10.55-7.23,15.45c-0.04,0.06-0.1,0.13-0.14,0.19c4.38,0.1,8.82,0.19,13.31,0.27c0.05,0,0.11,0,0.16,0
					c6.69,0.12,13.49,0.23,20.38,0.32c0.1,0,0.19,0,0.29,0c4.58,0.06,9.2,0.11,13.85,0.16c0.06,0,0.12,0,0.18,0
					c2.32,0.02,4.65,0.04,6.98,0.06c1.22-1.38,2.44-2.76,3.67-4.14c2.18-2.46,4.64-4.95,6.65-7.4c0.5-0.6,1.34-1.31,2.13-1.4
					c0.09-0.01,0.18-0.01,0.26,0c0.3,0.15,0.61,0.3,0.92,0.45c0.01,0.01,0.03,0.02,0.04,0.02c0.96,0.72,1.79,1.53,2.88,2.15
					c0.06,0.03,0.12,0.06,0.18,0.1c0.13,0.11,0.26,0.21,0.39,0.32c0.05,0.04,0.15,0.02,0.24-0.03c1.07,0.44,2.39,0.66,3.99,0.44
					c-0.22,0.03-0.4-0.06-0.56-0.22c2.38,0.71,4.92,1.26,7.65,1.61c4.18,0.54,10.45,1.52,16.29-0.82c-0.16,0.9-0.3,1.82-0.54,2.73
					c-0.23,0.88-0.55,1.75-1.06,2.58c-0.75,1.23-1.64,2.49-2.62,3.76c12.3-0.01,24.61-0.07,36.81-0.17c0.21,0,0.43,0,0.64-0.01
					c4.69-0.04,9.37-0.09,14.02-0.14c0.3,0,0.6-0.01,0.9-0.01c2.25-0.03,4.5-0.06,6.74-0.09c0.02,0,0.04,0,0.06,0
					c0.31-0.44,0.63-0.88,0.96-1.33c1.06-1.45,2.69-2.97,3.9-4.43c2.55-3.09,4.94-6.32,8.64-9.17c2.4-1.85,5.47-3.69,6.49-5.71
					c0.49-0.97,0.43-1.89,1.3-2.87c0.69-0.78,1.75-1.37,2.81-1.99c0.62-0.36,1.23-0.72,1.76-1.13c1.73-1.33,2.52-2.43,2.67-3.34
					c0.99-0.5,1.96-1.01,2.94-1.52c-3.16,3.42-6.5,6.84-10.28,10.42c-7.25,6.86-13.34,13.96-19.18,21.05
					c3.35-0.05,6.68-0.1,9.99-0.15c0,0,0,0,0,0C158.5,317.16,159,316.5,159.55,315.84z M-15.63,228.1
					c-1.51,4.53-3.19,8.24-3.68,12.54c-1.63,3.18-1.93,6.94-0.18,11.29c0.05,0.12,0.11,0.22,0.16,0.34c-0.46,2.3-0.61,4.7-1.78,6.71
					c-2.42,4.15-7.98,4.92-12.77,5.24c-1.59,0.11-4.08,0.15-7.11,0.22c0.44-0.23,0.79-0.56,0.95-1.08c0.1-0.3,0.12-0.69,0.08-1.11
					c0.83-2.43,4.79-3.07,5.42-5.67c0.27-1.09-0.15-2.3,0.26-3.34c0.64-1.63,2.81-1.93,4.12-3.08c1.43-1.25,1.71-3.24,2.35-4.92
					c0.58-1.54,1.58-2.9,2.32-4.37c1.14-2.28,2.32-4.54,3.5-6.8l-0.46,1.06c-0.04,0.09,0,0.21,0.1,0.25
					c0.02,0.01,0.05,0.01,0.07,0.01c0.07,0,0.14-0.04,0.17-0.11l2.65-6.17c0.36-0.72,0.73-1.43,1.08-2.15
					c1.63-3.33,3.2-6.68,4.75-10.04C-13.84,220.74-14.43,224.49-15.63,228.1z M62.16,156.69c0-0.01,0-0.02,0-0.03
					c0.04-0.22,0.19-0.4,0.36-0.55c0.02,0.19,0.03,0.39,0.04,0.58C62.42,156.7,62.29,156.69,62.16,156.69z"/>
			</g>
		</g>
	</g>
	<g>
		<text transform="matrix(0.968 0.2508 -0.2508 0.968 158.6612 90.0364)" class="st112 st160 st161">3</text>
	</g>
</g>
</svg>
